<?xml version="1.0" encoding="UTF-8" standalone="no"?>
<!DOCTYPE svg PUBLIC "-//W3C//DTD SVG 1.1//EN" "http://www.w3.org/Graphics/SVG/1.1/DTD/svg11.dtd">
<svg width="100%" height="100%" viewBox="0 0 20 20" version="1.1" xmlns="http://www.w3.org/2000/svg" xmlns:xlink="http://www.w3.org/1999/xlink" xml:space="preserve" xmlns:serif="http://www.serif.com/" style="fill-rule:evenodd;clip-rule:evenodd;stroke-linejoin:round;stroke-miterlimit:2;">
    <title>Drupal</title>
    <g transform="matrix(0.146875,0,0,0.146875,-1.00818,-0.145406)">
        <path d="M116.83,51.24C116.75,51.09 116.68,51.01 116.53,50.86C109.1,42.53 98.57,30.71 91,22.29C88.65,19.79 86.3,17.29 84.1,14.71C83.57,14.1 83.12,13.5 82.58,12.89C82.13,12.44 81.9,12.13 81.9,12.13L81.98,12.13C79.4,9.1 77.36,5.69 75.92,2.05L75.54,1.22C75.54,1.14 75.46,1.14 75.39,1.07C75.31,1.07 75.16,0.99 75.09,0.99L75.01,0.99C74.86,0.99 74.78,1.07 74.71,1.07L74.56,1.22L74.18,2.05C72.66,5.69 70.62,9.1 68.12,12.13L68.2,12.13C68.2,12.13 67.97,12.43 67.52,12.89C66.99,13.5 66.54,14.1 66,14.71C63.73,17.29 61.45,19.79 59.1,22.29C51.52,30.7 40.92,42.52 33.49,50.86C33.41,51.01 33.34,51.09 33.19,51.24C5.15,88.6 35.61,119.05 35.61,119.05L35.53,119.05C44.55,129.51 57.35,135.95 71.07,136.93C72.28,137.08 73.57,137.16 74.93,137.16L75.01,137.16C76.3,137.16 77.59,137.08 78.87,136.93C92.66,135.95 105.39,129.5 114.41,119.05L114.33,119.05C114.41,119.05 144.87,88.59 116.83,51.24ZM51.52,77.53L50.84,78.59L50.76,78.67C45.61,84.88 42.58,91.55 41.59,98.14C41.44,98.97 40.68,99.5 39.92,99.35C39.39,99.27 39.01,98.9 38.78,98.44C37.42,95.26 36.51,91.92 36.05,88.51C34.38,76.46 38.02,65.93 45.75,56.91C48.86,53.35 51.96,49.79 55.07,46.23C55.6,45.62 56.51,45.55 57.12,46.08C57.173,46.133 57.223,46.183 57.27,46.23C59.77,49.11 63.03,52.82 66.67,57.07C67.12,57.6 67.12,58.43 66.67,59.04C61.67,65.03 56.37,71.39 51.59,77.45L51.51,77.53L51.52,77.53ZM94.63,108.75C91.75,116.33 86.07,120.87 78.04,122.16C66.6,123.9 55.91,116.1 54.17,104.66C54.17,104.51 54.17,104.43 54.09,104.28C53.18,97.84 55.15,92.16 59.32,87.31C64.17,81.63 74.85,68.44 75,68.22C75.23,68.45 86.59,82.62 90.84,87.62C96.22,93.91 97.51,101.11 94.63,108.76L94.63,108.75ZM111.53,96.85C111.45,97.08 111.3,97.38 111.23,97.61C110.93,98.37 110.09,98.75 109.34,98.44C108.89,98.21 108.51,97.83 108.43,97.3C107.37,90.94 104.34,84.57 99.41,78.58L99.33,78.5L98.88,77.82L98.58,77.44C94.64,72.44 73.8,48.04 64.71,37.36C64.26,36.83 64.26,36 64.71,35.39C67.74,32.06 70.77,28.72 73.73,25.31C74.26,24.7 75.17,24.7 75.78,25.23L75.86,25.31C77.22,26.75 78.51,28.19 79.8,29.7C88.06,38.94 96.39,48.04 104.43,57.36C114.58,69.1 116.93,82.59 111.55,96.84L111.53,96.85Z" style="fill:currentColor;fill-rule:nonzero;"/>
    </g>
</svg>
