<svg xmlns:xlink="http://www.w3.org/1999/xlink" height="49" viewBox="0 0 150 49" width="150" xmlns="http://www.w3.org/2000/svg"><title>Benefit Cosmetics</title><path d="M22.2,26.4c-0.1-2.1-0.2-3.8-0.3-5.5c-0.1-1.2-0.3-2.5-0.8-3.6c-0.5-1.3-1.4-2.3-2.8-2.7 c-1.7-0.4-3.3-0.4-4.9,0.5c-3.1,1.6-4.6,4.2-4.8,7.6c-0.1,1.6,0,3.1,0,4.6c0,1.1,0,2.2,0.1,3.2c0.2,2,1,3.7,2.5,4.9 c1.9,1.6,4.1,2.1,6.6,1.7c1.8-0.3,2.9-1.3,3.5-3c0.2-0.6,0.4-1.3,0.5-1.9C22,30.2,22,28.1,22.2,26.4z M0,1.5c1.6,0,3.1,0,4.7,0 C5.3,1.5,6,1.4,6.6,1.2c0.8-0.2,1.4-0.5,1.9-1.1c0,6.4,0,12.6,0,18.9h0.1c0.1-0.1,0.1-0.2,0.2-0.3c1-2.2,2.6-4,5-4.9 c2.5-0.9,4.9-0.5,7.1,0.7c2.8,1.5,4.6,3.9,5.7,6.8c1.7,4.9,1,9.3-2.4,13.2c-2.4,2.8-5.6,4-9.3,3.5c-2.8-0.3-4.8-2-6.1-4.3 c-0.1-0.1-0.1-0.2-0.2-0.3c0,1.3,0,2.7,0,4.1c-2.8,0-5.7,0-8.5,0c0-0.3,0-0.6,0-0.9c1.3,0,2.5,0,3.8,0c0-11.4,0-22.8,0-34.2 c-1.3,0-2.5,0-3.8,0C0,2.1,0,1.8,0,1.5L0,1.5z M126.4,0c0.4,0.1,0.7,0.2,1,0.4c1.4,0.6,2.2,1.8,2,3.1c-0.1,1.1-0.5,1.9-1.5,2.2 c-1,0.4-2,0.4-2.8-0.4c-0.8-0.8-1.1-1.7-0.8-2.7c0.1-0.4,0.4-0.7,0.6-1c0.1-0.1,0.2-0.4,0.2-0.5c-0.1-0.1-0.3-0.2-0.5-0.3 c-0.6-0.1-1.1,0.2-1.6,0.5C121.8,1.9,121,3,120.4,4c-1.5,2.2-2.5,4.7-3.4,7.3c-0.3,1-0.7,2-1,3.1c0,0.1-0.1,0.2-0.1,0.4 c1.6,0,3.1,0,4.7,0c0,0.3,0,0.6,0,0.9c-1.7,0-3.3,0-5,0c-0.5,1.2-0.8,2.5-1.3,3.7c-1.6,4.9-3.3,9.9-5,14.8c-1,3.2-2.3,6.2-4.2,8.9 c-1,1.4-2,2.8-3.3,4c-1.1,1-2.4,1.6-3.9,1.7c-0.1,0-0.1,0-0.2,0.1c-0.4,0-0.8,0-1.2,0c-0.3-0.1-0.6-0.1-0.9-0.3 c-1-0.5-1.7-1.1-2-2.2c-0.2-1,0.2-2.1,1.2-2.6c0.9-0.5,2.2-0.4,2.9,0.2c0.8,0.7,0.9,2,0.2,2.8c-0.1,0.2-0.3,0.2-0.4,0.4 s-0.2,0.4-0.2,0.5c0.1,0.1,0.3,0.4,0.5,0.4c0.4,0,0.8,0,1.2-0.2c0.8-0.3,1.4-0.9,1.9-1.6c1-1.2,1.6-2.6,2-4.1 c1-3.6,2.2-7.3,3.1-10.9c1.4-4.8,2.6-9.7,4.2-14.5c0.2-0.4,0.3-0.8,0.5-1.3c-1.7,0-3.5,0-5.1,0c0-0.3,0-0.6,0-0.9c0.1,0,0.2,0,0.4,0 c1.6,0,3.1,0,4.7,0c0.3,0,0.4-0.1,0.5-0.4c1.3-3.7,3.2-7,5.9-9.8c1.5-1.6,3.1-3,5.1-3.9c0.7-0.3,1.5-0.4,2.2-0.7 c0.1,0,0.1-0.1,0.2-0.1C125.3,0,125.8,0,126.4,0 M150,34.2c-0.4,0.9-0.8,1.7-1.6,2.3c-1.4,1.3-3.1,1.8-5,1.7 c-0.9-0.1-1.9-0.2-2.8-0.5c-2-0.6-3.1-2-3.2-4.2c0-2,0-4,0-6c0-3.8,0-7.6,0-11.5c0-0.2,0-0.3,0-0.4c-1.7,0-3.2,0-4.8,0 c0-0.3,0-0.6,0-0.9c0.6,0,1.2-0.1,1.8-0.1c1.6-0.2,3.2-0.6,4.5-1.8c1-0.9,1.5-2.1,1.9-3.4c0.2-0.8,0.5-1.6,0.7-2.5 c0.1,0,0.4,0,0.6,0c0,2.5,0,5.2,0,7.7c2.6,0,5.1,0,7.7,0c0,0.3,0,0.6,0,0.9c-2.6,0-5.1,0-7.7,0c0,0.2,0,0.3,0,0.4 c0,6.2,0,12.3,0,18.4c0,0.3,0.1,0.7,0.1,1c0.2,1.1,1,1.7,2.1,1.8c2.1,0.2,3.4-0.8,4.4-2.6c0.1-0.1,0.1-0.3,0.2-0.4 c0.1-0.2,0.1-0.3,0.2-0.5c0.3,0.1,0.5,0.1,0.8,0.2C150,34,150,34.1,150,34.2 M77.4,36.6c1.5,0,2.9,0,4.3,0c0,0.3,0,0.6,0,0.9 c-4.5,0-8.9,0-13.4,0c0-0.3,0-0.6,0-0.9c1.4,0,2.8,0,4.3,0c0-0.2,0-0.3,0-0.4c0-5.9,0-11.9,0-17.7c0-0.5-0.1-1-0.1-1.6 c-0.4-1.7-1.7-2.6-3.5-2.5c-2.3,0.2-4,1.3-5.5,3.1c-0.8,1-1.5,2.2-2.1,3.3c-0.1,0.1-0.1,0.2-0.1,0.4c0,5.1,0,10.1,0,15.2 c0,0.1,0,0.2,0,0.2c1.4,0,2.8,0,4.2,0c0,0.3,0,0.6,0,0.9c-4.4,0-8.8,0-13.3,0c0-0.3,0-0.5,0-0.9c0.1,0,0.2,0,0.4,0 c1.2,0,2.5,0,3.7,0c0.2,0,0.3-0.1,0.3-0.3c0-6.8,0-13.6,0-20.4c0-0.1,0-0.2,0-0.3c-1.4,0-2.9,0-4.4,0c0-0.3,0-0.6,0-0.9 c0.1,0,0.2,0,0.4,0c1.8,0,3.6,0,5.4,0c0.4,0,0.8,0,1.2-0.1c0.9-0.2,1.2-0.3,2.1-1.1c0,1.9,0,3.7,0,5.6h0.1c0.1-0.1,0.1-0.2,0.1-0.3 c0.8-1.3,1.6-2.4,2.8-3.4c1.9-1.6,4.1-2.2,6.5-1.9c1.2,0.1,2.3,0.3,3.4,0.8c1.9,0.9,2.8,2.4,3,4.4c0.1,0.5,0.1,0.9,0.1,1.4 c0,5.3,0,10.6,0,16C77.4,36.3,77.4,36.4,77.4,36.6 M87,22.8c0.2,0,0.3,0,0.4,0c0.8,0,1.7,0,2.5,0c2,0,4.1,0,6.1,0 c0.5,0,0.6-0.1,0.6-0.6c0-0.7,0-1.4-0.1-2.1c-0.1-1-0.2-2.2-0.7-3.1c-0.5-1.1-1.3-2-2.5-2.3c-2.1-0.6-4.8-0.1-5.8,3 C87,19.3,87,21,87,22.8z M101.6,29.6c0.3,0,0.6,0,0.9,0c0,0.2-0.1,0.4-0.1,0.6c-0.7,2.9-2.2,5.3-4.9,6.8c-1.7,0.9-3.5,1.3-5.4,1.2 c-2.6-0.2-4.9-1-6.8-2.8c-1.7-1.7-2.7-3.6-3.2-5.8c-1.1-4.9,0.2-9.3,3.6-13c1.4-1.5,3.2-2.5,5.3-2.8c2.2-0.3,4.1,0.2,5.9,1.5 c2.6,1.9,4.3,4.4,5,7.5c0.3,1.2-0.1,1.1-0.9,1.1c-4.5,0-9.1,0-13.6,0c-0.2,0-0.3,0-0.4,0c0,0.2,0,0.3,0,0.4c0,1.9,0,4,0,5.9 c0,1.3,0.1,2.6,0.6,3.8c0.7,2.1,2.2,3.2,4.4,3.4c2.7,0.2,5-0.5,7-2.4c1.3-1.3,2.2-2.9,2.5-4.8C101.5,30,101.5,29.8,101.6,29.6 L101.6,29.6z M36.1,22.8c0.2,0,0.2,0,0.3,0c2.9,0,5.8,0,8.7,0c0.1,0,0.1,0,0.2,0c0.2,0,0.4-0.1,0.4-0.4c0-1.5,0-3-0.4-4.5 c-0.6-2.2-1.8-3.3-3.9-3.4c-2-0.2-3.7,0.7-4.6,2.6c-0.5,1-0.7,2.2-0.8,3.4C36.1,21.3,36.1,22,36.1,22.8z M36.1,23.7 c0,0.7,0,1.5,0,2.2c0,1.7,0,3.4,0.1,5.1c0.1,1.4,0.3,2.8,1.1,4c0.8,1.4,2.1,2,3.7,2.2c2.9,0.2,5.5-0.6,7.4-2.8 c1.2-1.3,1.9-2.9,2.2-4.6c0-0.1,0-0.1,0-0.1c0,0,0,0,0-0.1c0.2,0,0.5,0,0.9,0c-0.1,0.6-0.2,1.1-0.4,1.6c-1.1,3.4-3.3,5.7-6.8,6.6 c-5,1.3-10.6-0.9-12.7-6.7c-1.9-5.3-0.9-10.1,2.8-14.4c1.3-1.6,3.1-2.7,5.2-3.1c2.3-0.4,4.5,0,6.4,1.3c2.5,1.8,4.1,4.2,5,7.2 c0.1,0.3,0.1,0.7,0.1,1c0,0.3-0.1,0.5-0.4,0.5c-0.1,0-0.2,0-0.3,0c-4.6,0-9.1,0-13.7,0C36.4,23.7,36.3,23.7,36.1,23.7L36.1,23.7z M54.1,47.6c0-1.4,0-2.8,0-4.2c0.1,0,0.3,0,0.5,0c0,1.7,0,3.4,0,5c-0.2,0.1-0.4,0-0.5-0.1c-1.1-1.3-2.2-2.5-3.3-3.8 c-0.1-0.1-0.1-0.2-0.3-0.3c0,1.5,0,2.8,0,4.3c-0.1,0-0.3,0-0.4,0c0-1.7,0-3.4,0-5.1c0.2-0.1,0.4,0,0.6,0.2c1.1,1.3,2.2,2.5,3.2,3.7 C53.8,47.4,53.9,47.4,54.1,47.6C54,47.6,54.1,47.6,54.1,47.6 M21.7,47.7c0-1.5,0-2.9,0-4.3c0.2,0,0.3,0,0.5,0c0,1.7,0,3.4,0,5 c-0.2,0.1-0.4,0-0.5-0.1c-1.1-1.3-2.2-2.5-3.3-3.8c-0.1-0.1-0.2-0.2-0.2-0.3c0,1.4,0,2.8,0,4.3c-0.1,0-0.3,0-0.5,0 c0-1.6,0-3.4,0-5.1c0.2-0.1,0.4,0,0.6,0.2C19.3,45,20.4,46.2,21.7,47.7 M87.6,45.9c0-1.3-1-2.2-2.2-2.2c-1.2,0-2.2,1-2.2,2.2 c0,1.3,1,2.2,2.2,2.3C86.6,48.1,87.6,47.1,87.6,45.9z M85.3,48.6c-1.6-0.1-2.7-1.2-2.6-2.7c0.1-1.5,1.3-2.6,2.9-2.6 c1.4,0.1,2.6,1.2,2.5,2.8C88,47.4,86.8,48.6,85.3,48.6L85.3,48.6z M36.4,43.8c0,0.7,0,1.3,0,1.9c0.5,0,0.9,0,1.3-0.1 c0.5-0.1,0.7-0.5,0.8-0.8c0-0.4-0.2-0.8-0.7-0.9C37.3,43.8,36.8,43.8,36.4,43.8z M36.3,46.1c0,0.8,0,1.6,0,2.3c-0.2,0-0.3,0-0.5,0 c0-1.7,0-3.4,0-5.1c0.6,0,1.1,0,1.7,0c0.7,0.1,1.2,0.5,1.3,1c0.2,0.7-0.1,1.1-0.8,1.6c0.3,0.5,0.6,0.8,0.8,1.3 c0.3,0.4,0.5,0.8,0.8,1.3c-0.3,0.1-0.5,0.1-0.8-0.3c-0.2-0.5-0.6-0.8-0.8-1.3C37.8,46.1,37.1,45.9,36.3,46.1L36.3,46.1z M43.4,46.3 c0.7,0,1.3,0,2,0c-0.4-0.8-0.7-1.5-1-2.2C44.1,44.8,43.8,45.6,43.4,46.3z M46.9,48.4c-0.3,0.1-0.5,0-0.6-0.3 c-0.1-0.4-0.4-0.8-0.5-1.2c-0.1-0.1-0.2-0.2-0.4-0.2c-0.6,0-1.3,0-1.9,0c-0.2,0-0.3,0.1-0.4,0.3c-0.2,0.4-0.4,0.8-0.5,1.1 c-0.2,0.3-0.3,0.4-0.6,0.3c0.1-0.3,0.2-0.5,0.4-0.8c0.6-1.3,1.3-2.7,1.9-4c0.1-0.1,0.1-0.2,0.2-0.3c0.1,0.1,0.2,0.2,0.2,0.2 c0.8,1.6,1.4,3.2,2.2,4.7C46.9,48.3,46.9,48.4,46.9,48.4L46.9,48.4z M12,44.1c-0.4,0.8-0.7,1.5-1,2.2c0.7,0,1.4,0,2,0 C12.7,45.6,12.4,44.9,12,44.1z M14.5,48.4c-0.3,0.1-0.5,0-0.6-0.3c-0.2-0.4-0.4-0.8-0.5-1.2c-0.1-0.1-0.2-0.2-0.3-0.2 c-0.7,0-1.3,0-2,0c-0.1,0-0.2,0.1-0.3,0.2c-0.2,0.4-0.4,0.8-0.5,1.2c-0.2,0.4-0.2,0.4-0.6,0.3c0-0.1,0-0.1,0.1-0.2 c0.8-1.6,1.4-3.1,2.2-4.6c0.1-0.1,0.2-0.2,0.2-0.3c0.1,0.1,0.2,0.2,0.2,0.3c0.7,1.6,1.4,3.1,2.1,4.6C14.5,48.3,14.5,48.3,14.5,48.4 L14.5,48.4z M79.7,47.6c0.1,0.4,0,0.5-0.3,0.6c-0.8,0.3-1.7,0.4-2.6,0.1c-1.2-0.4-1.8-1.6-1.6-2.9c0.2-1.1,1.3-2.1,2.5-2.1 c0.5,0,1.1,0.2,1.7,0.3c0.4,0.1,0.4,0.3,0.3,0.5c-0.5-0.2-1-0.3-1.5-0.4c-1.3-0.2-2.3,0.8-2.5,2C75.6,47,76.5,48,77.8,48 c0.6,0,1.1-0.2,1.6-0.4C79.5,47.7,79.6,47.7,79.7,47.6 M62.3,44.1c-0.5-0.2-1-0.3-1.4-0.4c-0.9-0.2-1.7,0.1-2.2,1 c-0.5,0.8-0.5,1.7,0,2.5s1.4,1,2.2,0.9c0.5-0.1,0.9-0.3,1.4-0.4c0.1,0.4,0.1,0.4-0.2,0.5c-1.2,0.4-2.3,0.5-3.4-0.3 c-0.8-0.7-1.1-1.9-0.8-2.8c0.4-1,1.4-1.7,2.4-1.7c0.5,0,1.1,0.2,1.6,0.3C62.4,43.7,62.4,43.7,62.3,44.1 M6.6,44.1 C6.3,44,6,43.8,5.7,43.8c-0.2-0.1-0.4,0-0.7,0.1c-0.4,0.2-0.5,0.4-0.5,0.8s0.2,0.6,0.4,0.8c0.4,0.2,0.8,0.3,1.2,0.5 c0.8,0.4,1,1.3,0.5,1.9c-0.4,0.5-1.1,0.8-1.7,0.6c-0.2-0.1-0.3-0.1-0.4-0.1c-0.3-0.1-0.5-0.3-0.4-0.8c0.1,0.1,0.3,0.2,0.4,0.3 C4.9,48,5.3,48.2,5.7,48c0.4-0.2,0.6-0.5,0.7-0.8c0-0.4-0.1-0.7-0.4-0.8C5.6,46.2,5.3,46.2,5,46c-0.9-0.4-1.2-0.9-1-1.7s1-1.1,1.8-1 c0.2,0,0.3,0.1,0.4,0.2C6.7,43.6,6.7,43.6,6.6,44.1 M69.4,47.6c0.3,0.2,0.7,0.4,1,0.4c0.8,0.2,1.3-0.3,1.3-1c0-0.3-0.1-0.6-0.4-0.7 c-0.3-0.2-0.6-0.3-0.9-0.4c-0.9-0.4-1.2-0.9-1.1-1.7c0.1-0.7,0.9-1.1,1.7-1c0.2,0,0.4,0.1,0.5,0.1c0.3,0.1,0.5,0.2,0.4,0.7 c-0.2-0.1-0.3-0.2-0.4-0.2c-0.4-0.2-0.7-0.2-1.1-0.1s-0.6,0.4-0.7,0.8s0.1,0.7,0.4,0.9c0.3,0.2,0.6,0.2,0.9,0.4c0.9,0.4,1.2,1,1,1.8 c-0.2,0.8-1,1.1-1.9,0.9c-0.1-0.1-0.3-0.1-0.4-0.1C69.4,48.2,69.2,48,69.4,47.6 M32.8,43.4c0,0.1,0,0.2,0,0.4c-0.8,0-1.4,0-2.2,0 c0,0.6,0,1.2,0,1.9c0.7,0,1.3,0,1.9,0c0,0.1,0,0.2,0,0.4c-0.7,0-1.3,0-1.9,0c0,0.8,0,1.6,0,2.5c-0.1,0-0.3,0-0.4,0 c0-1.7,0-3.4,0-5.1C31,43.4,31.9,43.4,32.8,43.4 M65.5,43.4c0.2,0,0.3,0,0.4,0c0,1.7,0,3.4,0,5.1c-0.1,0-0.3,0-0.4,0 C65.5,46.8,65.5,45.1,65.5,43.4 M129.5,36.6c1.5,0,3,0,4.4,0c0,0.3,0,0.6,0,0.9c-4.5,0-9,0-13.5,0c0-0.3,0-0.6,0-0.9 c1.4,0,2.9,0,4.4,0c0-7,0-14,0-21c-0.6,0-1.2,0-1.8,0c0-0.3,0-0.6,0-0.9c0.1,0,0.2,0,0.4,0c1.1,0,2.3-0.1,3.5-0.2 c1-0.1,1.9-0.4,2.6-1.1C129.5,21.3,129.5,28.9,129.5,36.6" fill="#222"></path></svg>