<svg xmlns:xlink="http://www.w3.org/1999/xlink" height="61" viewBox="0 0 150 60.1" width="150" xmlns="http://www.w3.org/2000/svg"><title>ebay</title><path  fill="#222" d="M95,31.9c-6.8,0.2-11.1,1.5-11.1,5.9c0,2.9,2.3,6.1,8.2,6.1c7.9,0,12.1-4.3,12.1-11.3l0-0.8C101.4,31.8,98,31.8,95,31.9z M111.7,41.2c0,2.2,0.1,4.3,0.3,6.3h-7c-0.2-1.6-0.3-3.2-0.3-4.7c-3.8,4.6-8.3,6-14.5,6C81,48.7,76,43.8,76,38.2 c0-8.2,6.7-11.1,18.4-11.3c3.2-0.1,6.8-0.1,9.8-0.1l0-0.8c0-5.5-3.5-7.7-9.6-7.7c-4.5,0-7.9,1.9-8.2,5.1h-7.9 c0.8-8.1,9.3-10.1,16.8-10.1c8.9,0,16.5,3.2,16.5,12.6V41.2z"></path><path  fill="#222" d="M29.9,27.9c-0.3-7-5.4-9.7-10.8-9.7c-5.8,0-10.5,3-11.3,9.7H29.9z M7.7,32.9c0.4,6.8,5.1,10.9,11.6,10.9 c4.5,0,8.5-1.8,9.8-5.8h7.8C35.3,46,26.7,48.7,19.3,48.7C5.9,48.7,0,41.4,0,31.4c0-11,6.1-18.2,19.5-18.2 c10.6,0,18.4,5.5,18.4,17.7v2H7.7z"></path><path  fill="#222" d="M57.1,43.6c7,0,11.8-5,11.8-12.6c0-7.6-4.8-12.6-11.8-12.6c-6.9,0-11.8,5-11.8,12.6C45.4,38.6,50.2,43.6,57.1,43.6z M37.8,0h7.5l0,18.9c3.7-4.4,8.8-5.7,13.8-5.7c8.4,0,17.7,5.7,17.7,17.9c0,10.2-7.4,17.7-17.8,17.7c-5.5,0-10.6-2-13.8-5.8 c0,1.5-0.1,3.1-0.3,4.6h-7.4c0.1-2.4,0.3-5.4,0.3-7.8V0z"></path><path  fill="#222" d="M150,14.5l-23.2,45.6h-8.4l6.7-12.7l-17.5-33h8.8l12.9,25.8L142,14.5H150z"></path></svg>