<svg xmlns:xlink="http://www.w3.org/1999/xlink" height="75" viewBox="0 0 150 67" width="150" xmlns="http://www.w3.org/2000/svg"><title>The Empire State Building</title><path d="M0.1,65.2H150V67H0.1L0.1,65.2z M31.5,46c1.5-0.5,2.3-1.7,2.3-3.6c0-2.1-1.4-3.9-4.3-3.9h-6.8v16.4h7.8 c3.1,0,4.7-2,4.7-4.7C35.2,47.8,33.7,46.3,31.5,46z M30.1,53c0,0.7-0.1,0.8-0.5,0.8h-2.2v-7.4h2.2c0.3,0,0.5,0.2,0.5,1V53z M30.1,44.7c0,0.8-0.1,1-0.5,1h-2.2v-6.4h2.2c0.3,0,0.5,0.1,0.5,0.8V44.7z M83,38.4h-8v16.4h8c3.9,0,7.4-2.3,7.4-8.1 S86.9,38.4,83,38.4L83,38.4z M84.8,50.1c0,2.9-0.2,3.7-1.8,3.7h-3.2V39.4H83c1.6,0,1.8,0.6,1.8,3.7V50.1z M48.9,38.4v12.3 c0,2.6-1.9,3.3-4.2,3.3c-1.5,0-2-0.3-2.3-0.6c-0.2-0.2-0.2-0.5-0.2-0.8V38.4h-4.7v11.3c0,3.8,2.8,5.5,7.2,5.5c3.7,0,5.7-1.8,5.7-4.5 V38.4L48.9,38.4L48.9,38.4z M53.6,38.4h4.7v16.4h-4.7V38.4z M62.2,38.4v16.4h10.6v-3.7h-0.3L68.2,54h-1.4V38.4H62.2z M92.6,38.4h4.7 v16.4h-4.7V38.4z M112.1,38.4v9.6l-10-9.6h-1.4v16.4h1.5v-9.5l9.6,9.5h1.7V38.4L112.1,38.4z M115.7,46.6c0,5.8,4,8.3,8.3,8.3 c2.9,0,5.2-0.1,6.2-0.4v-7.2h-6.2v1.2h3.7l-1.9,5.5h-2.1c-1.5,0-2.2-1-2.2-3.7v-7.4c0-2.6,1-3.7,2.5-3.7h1.1l4,3.3h0.3v-3.8 c-1.7-0.3-3.5-0.4-5.3-0.4C119.7,38.3,115.7,40.8,115.7,46.6 M0,16.6V33h11.5v-3.5h-0.3l-5.2,2.7H4.7v-8.8L8,24.5h0.3v-2.9H8 l-3.3,1.2v-5.5h1.1l4.5,2.2h0.3v-3H0z M29.3,16.6L22.7,27L15,16.6h-1.1V33h1.5v-8.3l5.2,7.6h0.5l4.6-7.6V33h4.7V16.6L29.3,16.6z M39.9,16.5h-6.7V33h4.7v-7.9h2c3,0,4.5-1.7,4.5-4.3C44.4,18.7,42.9,16.5,39.9,16.5L39.9,16.5z M40.3,23.1c0,0.8-0.1,1-0.5,1h-1.9 v-6.5h1.9c0.3,0,0.5,0.1,0.5,0.8V23.1z M46.3,16.6h4.7V33h-4.7V16.6z M62.5,24.6c1.7-0.6,2.8-1.9,2.8-3.8c0-2.1-1.5-4.2-4.5-4.2H54 V33h4.7v-8h0.1l4,8h5v-0.5L62.5,24.6z M61.2,23c0,0.8-0.1,1-0.5,1h-2.1v-6.4h2.1c0.3,0,0.5,0.1,0.5,0.8V23z M69.4,16.6V33h11.5v-3.5 h-0.3l-5.2,2.7h-1.2v-8.8l3.3,1.2h0.3v-2.9h-0.3l-3.3,1.2v-5.5h1.1l4.4,2.2H80v-3H69.4z M99.3,16.6v3h0.3l3.7-2.4V33h4.7V17.2 l3.7,2.4h0.3v-3L99.3,16.6z M118.4,16.5h-1.2l-7,16.4h2c0.3-1.5,0.7-2.9,1.3-4.4h5.3l1.8,4.4h4.8L118.4,16.5z M113.9,27.4 c0.2-0.5,0.4-1.1,0.7-1.7l1.6-3.7l2.2,5.3L113.9,27.4z M124,16.6v3h0.3l3.7-2.4V33h4.7V17.2l3.7,2.4h0.3v-3L124,16.6z M138.5,16.6 V33H150v-3.5h-0.3l-5.2,2.7h-1.2v-8.8l3.3,1.2h0.3v-2.9h-0.3l-3.3,1.2v-5.5h1.1l4.4,2.2h0.4v-3H138.5z M87.5,21.4 c0,1.2,0.4,2.4,1.7,3.7l5,4.7v1.1c0,0.8-0.7,1.3-1.9,1.3h-0.6l-3.9-3.5h-0.3v4c1,0.2,2.9,0.4,4.9,0.4c4.4,0,5.8-2.9,5.8-4.6 c0-1.4-0.4-2.5-1.7-3.7l-5.9-5.5v-0.2c0-1,0.6-1.8,2.4-1.8h0.5l3.6,3.4h0.3v-3.9c-1.4-0.3-2.9-0.4-4.4-0.4 C90.1,16.5,87.5,18.3,87.5,21.4 M0.1,4.3h54.8v1.9H0.1L0.1,4.3z M96,4.3H150v1.9H96L96,4.3z M61.3,0v1.1h3.2v9.1h1.3V1.1H69V0 L61.3,0z M78.6,0v4.4h-6V0h-1.3v10.2h1.3V5.5h6v4.7h1.3V0H78.6z M82.8,0v10.2h6.7V9.1h-5.4V5.6h5.3V4.4h-5.3V1.1h5.4V0L82.8,0z"></path></svg>