<?xml version="1.0" encoding="UTF-8" standalone="no"?>
<!DOCTYPE svg PUBLIC "-//W3C//DTD SVG 1.1//EN" "http://www.w3.org/Graphics/SVG/1.1/DTD/svg11.dtd">
<svg width="100%" height="100%" viewBox="0 0 76 75" version="1.1" xmlns="http://www.w3.org/2000/svg" xmlns:xlink="http://www.w3.org/1999/xlink" xml:space="preserve" xmlns:serif="http://www.serif.com/" style="fill-rule:evenodd;clip-rule:evenodd;stroke-linejoin:round;stroke-miterlimit:2;">
    <g transform="matrix(0.198004,0,0,0.198004,-1.26318,-1.64739)">
        <g transform="matrix(1,0,0,1,-11.68,-12.29)">
            <path d="M210,20.61C105.08,20.61 20,105.4 20,210C20,314.6 105.05,399.39 210,399.39C314.95,399.39 400,314.6 400,210C400,105.4 314.92,20.61 210,20.61ZM338.13,337.74C267.752,407.835 152.248,407.835 81.87,337.74C48.006,303.873 28.961,257.893 28.961,210C28.961,110.892 110.514,29.34 209.621,29.34C209.748,29.34 209.874,29.34 210,29.34C210.223,29.339 210.446,29.339 210.669,29.339C309.711,29.339 391.209,110.837 391.209,209.879C391.209,257.841 372.097,303.879 338.13,337.74Z" style="fill:#222;fill-rule:nonzero;"/>
        </g>
        <g transform="matrix(1,0,0,1,-11.68,-12.29)">
            <path d="M78.17,271.57C79.67,272.181 81.356,272.16 82.84,271.51C84.424,270.981 85.642,269.692 86.08,268.08C86.408,266.136 86.114,264.137 85.24,262.37L81.56,253.46L61.65,261.62L65.24,270.32C65.97,272.33 67.292,274.074 69.03,275.32C69.881,275.883 70.88,276.182 71.9,276.18C72.809,276.166 73.706,275.972 74.54,275.61C76.398,275.034 77.795,273.479 78.17,271.57ZM73.56,269.35C73.468,269.827 73.116,270.213 72.65,270.35C72.192,270.602 71.625,270.559 71.21,270.24C70.561,269.589 70.074,268.794 69.79,267.92L68.44,264.65L71.56,263.36L73,266.86C73.399,267.628 73.592,268.486 73.56,269.35ZM78.89,260.35L80.22,263.57C80.593,264.251 80.76,265.026 80.7,265.8C80.559,266.245 80.207,266.594 79.76,266.73C79.409,266.899 78.99,266.848 78.69,266.6C78.199,266.192 77.832,265.655 77.63,265.05L76.15,261.47L78.89,260.35Z" style="fill:#222;fill-rule:nonzero;"/>
        </g>
        <g transform="matrix(1,0,0,1,-11.68,-12.29)">
            <path d="M95.85,282.56L72.68,286.56L75.78,291.24L79.92,290.53L84.39,297.3L82.11,300.81L85.24,305.55L98,285.84L95.85,282.56ZM90,288.68L87.19,293L84.92,289.57L90,288.68Z" style="fill:#222;fill-rule:nonzero;"/>
        </g>
        <path d="M104.55,295.06L94.04,295.07L99.37,289.83L95.57,285.99L80.24,301.06L84.04,304.9L89.16,299.86L90.65,299.86L89.58,310.5L94.56,315.54L96.1,300.16L109.55,300.12L104.55,295.06Z" style="fill:#222;fill-rule:nonzero;"/>
        <path d="M115.06,304.08L102.18,321.28L106.51,324.5L119.39,307.31L115.06,304.08Z" style="fill:#222;fill-rule:nonzero;"/>
        <path d="M133.21,329.01L130.27,314.41L126.63,312.48L116.55,331.45L121.23,333.91L126.62,323.75L129.55,338.31L133.22,340.25L143.3,321.29L138.63,318.82L133.21,329.01Z" style="fill:#222;fill-rule:nonzero;"/>
        <g transform="matrix(1,0,0,1,-11.68,-12.29)">
            <path d="M166.69,344.6C168.066,343.883 169.682,343.778 171.14,344.31C172.897,344.723 174.371,345.918 175.14,347.55L175.32,347.92L179.85,345.78L179.75,345.44C179.264,343.963 178.352,342.661 177.13,341.7C175.779,340.563 174.206,339.722 172.51,339.23C169.662,338.286 166.545,338.576 163.92,340.03C161.35,341.457 159.463,343.864 158.69,346.7C157.724,349.564 158.034,352.709 159.54,355.33C161.129,357.956 163.687,359.857 166.66,360.62C167.783,360.956 168.948,361.128 170.12,361.13C170.594,361.128 171.068,361.101 171.54,361.05C173.12,360.862 174.643,360.344 176.01,359.53L176.14,359.45L178.69,350.9L168.69,347.9L167.27,352.65L172.27,354.13L171.83,355.63C169.025,356.353 166.05,355.238 164.41,352.85C163.629,351.446 163.497,349.769 164.05,348.26C164.406,346.737 165.357,345.418 166.69,344.6Z" style="fill:#222;fill-rule:nonzero;"/>
        </g>
        <g transform="matrix(1,0,0,1,-11.68,-12.29)">
            <path d="M217.81,358.88C216.549,360.573 214.54,361.551 212.43,361.5C210.883,361.546 209.38,360.969 208.26,359.9C207.141,358.793 206.538,357.263 206.6,355.69C206.511,354.105 207.087,352.552 208.19,351.41C209.33,350.328 210.86,349.751 212.43,349.81C213.3,349.844 214.157,350.033 214.96,350.37C215.78,350.724 216.501,351.274 217.06,351.97L217.34,352.31L221.01,348.93L220.82,348.64C219.945,347.328 218.718,346.288 217.28,345.64C215.643,344.915 213.871,344.543 212.08,344.55C209.077,344.464 206.172,345.644 204.08,347.8C200.034,352.301 200.034,359.209 204.08,363.71C206.198,365.755 209.068,366.841 212.01,366.71L212.09,366.71C213.916,366.718 215.721,366.314 217.37,365.53C218.929,364.796 220.262,363.656 221.23,362.23L221.41,361.96L218.12,358.47L217.81,358.88Z" style="fill:#222;fill-rule:nonzero;"/>
        </g>
        <g transform="matrix(1,0,0,1,-11.68,-12.29)">
            <path d="M245.24,343.44C243.414,342.227 241.27,341.58 239.078,341.58C232.966,341.58 227.938,346.609 227.938,352.72C227.938,358.802 232.918,363.818 239,363.86C239.806,363.855 240.61,363.771 241.4,363.61C246.532,362.52 250.234,357.949 250.234,352.703C250.234,348.988 248.377,345.508 245.29,343.44L245.24,343.44ZM243.81,356.13C243.024,357.371 241.748,358.222 240.3,358.47C238.868,358.791 237.365,358.497 236.16,357.66C233.587,355.739 232.859,352.152 234.48,349.38C235.264,348.126 236.544,347.261 238,347C238.362,346.93 238.731,346.893 239.1,346.89C240.172,346.894 241.218,347.222 242.1,347.83C243.413,348.701 244.302,350.084 244.55,351.64C244.923,353.174 244.655,354.796 243.81,356.13Z" style="fill:#222;fill-rule:nonzero;"/>
        </g>
        <path d="M258.87,318.61L257.15,329.79L247.44,323.62L242.97,325.58L251.63,345.23L256.58,343.06L251.92,332.5L259.41,337.28L260.93,336.62L262.35,328.06L266.96,338.52L271.91,336.35L263.25,316.7L258.87,318.61Z" style="fill:#222;fill-rule:nonzero;"/>
        <g transform="matrix(1,0,0,1,-11.68,-12.29)">
            <path d="M299.24,318.33C298.476,317.799 297.617,317.418 296.71,317.21C295.569,316.99 294.391,317.069 293.29,317.44C291.853,317.899 290.501,318.591 289.29,319.49L282,324.7L294.51,342.17L298.91,339.04L295.13,333.76L298.04,331.68C300.58,329.88 302.04,327.94 302.43,325.9C302.824,323.937 302.374,321.895 301.19,320.28C300.648,319.53 299.99,318.872 299.24,318.33ZM296.93,325.42C296.512,326.311 295.841,327.059 295,327.57L292.13,329.57L289.34,325.68L292.34,323.53C293.136,322.846 294.162,322.488 295.21,322.53C295.778,322.644 296.274,322.988 296.58,323.48C297.04,324.014 297.175,324.759 296.93,325.42Z" style="fill:#222;fill-rule:nonzero;"/>
        </g>
        <g transform="matrix(1,0,0,1,-11.68,-12.29)">
            <path d="M305.4,305.94L314.14,327.7L318.09,323.7L316.52,319.82L322.22,314.04L326.15,315.52L330.15,311.52L308.15,303.19L305.4,305.94ZM317.4,312.2L314.51,315.14L312.59,310.34L317.4,312.2Z" style="fill:#222;fill-rule:nonzero;"/>
        </g>
        <path d="M314.15,267.97L323.83,274.28L308.98,275.87L306.72,279.31L324.75,291.04L327.64,286.63L317.98,280.34L332.6,278.78L332.8,278.76L335.07,275.29L317.04,263.56L314.15,267.97Z" style="fill:#222;fill-rule:nonzero;"/>
        <path d="M328.44,237.44L326.09,243.23L331.54,250.89L322.32,252.54L319.91,258.5L335.95,255.66L343.11,258.54L345.13,253.54L337.97,250.66L328.44,237.44Z" style="fill:#222;fill-rule:nonzero;"/>
        <path d="M71.17,171.31L60.46,168.6L59.07,166.34L74.27,159.13L76.83,149.02L55.32,159.26L44.61,141.74L42.05,151.83L50.76,166.16L39.16,163.22L37.2,170.91L69.22,178.99L71.17,171.31Z" style="fill:#222;fill-rule:nonzero;"/>
        <path d="M85.26,134L56,118.74L52.31,125.77L81.58,141.03L85.26,134Z" style="fill:#222;fill-rule:nonzero;"/>
        <path d="M96.7,116.83L82.93,104.73L106.61,105.61L110.66,101.03L85.88,79.27L80.74,85.08L94.55,97.2L71,96.33L70.8,96.33L66.78,100.87L91.56,122.64L96.7,116.83Z" style="fill:#222;fill-rule:nonzero;"/>
        <g transform="matrix(1,0,0,1,-11.68,-12.29)">
            <path d="M131.5,101.06C132.657,101.307 133.837,101.431 135.02,101.43C138.53,101.363 141.954,100.324 144.91,98.43C147.086,97.14 148.97,95.409 150.44,93.35C151.863,91.37 152.848,89.11 153.33,86.72L153.33,86.57L146.33,74.97L132.79,83.12L136.55,89.32L143.55,85.12L145,87.54C144.142,89.356 142.745,90.865 141,91.86C138.858,93.28 136.25,93.821 133.72,93.37C131.223,92.768 129.1,91.126 127.89,88.86C126.47,86.783 125.943,84.219 126.43,81.75C127.081,79.368 128.684,77.356 130.86,76.19C133.234,74.633 136.177,74.197 138.9,75L139.29,75.12L141.45,68.12L141.13,67.96C138.955,66.988 136.541,66.675 134.19,67.06C131.5,67.412 128.914,68.325 126.6,69.74C122.575,71.975 119.67,75.802 118.6,80.28C117.572,84.671 118.359,89.296 120.78,93.1C123.047,97.165 126.954,100.066 131.5,101.06Z" style="fill:#222;fill-rule:nonzero;"/>
        </g>
        <g transform="matrix(1,0,0,1,-11.68,-12.29)">
            <path d="M182.94,77L195.73,75L199.24,80.49L207.49,79.21L188.09,48.9L182.33,49.79L173.11,84.56L181.27,83.29L182.94,77ZM184.69,69.82L186.99,61.21L191.73,68.72L184.69,69.82Z" style="fill:#222;fill-rule:nonzero;"/>
        </g>
        <g transform="matrix(1,0,0,1,-11.68,-12.29)">
            <path d="M225.47,70.11L229.9,70.77L236.07,82.77L245.59,84.18L238.38,70.49C240.235,69.967 241.904,68.926 243.19,67.49C244.6,65.929 245.513,63.982 245.81,61.9C246.041,60.546 246.041,59.164 245.81,57.81C245.534,56.487 244.997,55.233 244.23,54.12C243.238,52.765 241.911,51.69 240.38,51C238.403,50.072 236.295,49.454 234.13,49.17L220.84,47.17L216,79.79L223.85,81L225.47,70.11ZM227.61,55.77L232.89,56.55C234.89,56.85 236.28,57.36 236.95,58.05C237.616,58.758 237.886,59.753 237.67,60.7C237.562,61.742 236.933,62.662 236,63.14C234.776,63.685 233.409,63.826 232.1,63.54L226.54,62.72L227.61,55.77Z" style="fill:#222;fill-rule:nonzero;"/>
        </g>
        <path d="M254.24,80.59L264.52,57.29L274,61.44L277.01,54.6L250.82,43.12L247.8,49.96L257.24,54.09L246.96,77.4L254.24,80.59Z" style="fill:#222;fill-rule:nonzero;"/>
        <path d="M277.48,94.61L285.82,84.82L296.1,93.53L287.76,103.31L293.82,108.45L315.21,83.36L309.14,78.22L300.95,87.83L290.68,79.13L298.87,69.52L292.81,64.38L271.42,89.47L277.48,94.61Z" style="fill:#222;fill-rule:nonzero;"/>
        <g transform="matrix(1,0,0,1,-11.68,-12.29)">
            <path d="M318.11,131C317.415,134.818 318.222,138.761 320.36,142C321.091,143.191 321.968,144.286 322.97,145.26C323.97,146.229 325.118,147.032 326.37,147.64C327.642,148.268 329.012,148.677 330.42,148.85C330.845,148.899 331.272,148.922 331.7,148.92C332.833,148.913 333.961,148.768 335.06,148.49C336.855,148.032 338.566,147.293 340.13,146.3L356.13,136.42L351.94,129.68L336.73,139.08C332.17,141.89 328.9,141.56 326.73,138.08C325.605,136.507 325.299,134.485 325.91,132.65C326.706,130.663 328.171,129.015 330.05,127.99L345.1,118.69L340.92,111.95L325.15,121.68C321.18,124.12 318.81,127.27 318.11,131Z" style="fill:#222;fill-rule:nonzero;"/>
        </g>
        <g transform="matrix(1,0,0,1,-11.68,-12.29)">
            <path d="M367.72,168.91L364.32,156L332.32,164.35L334.32,172.02L345,169.2L346.13,173.52L337.49,183.89L339.93,193.17L349.72,181.17C350.931,182.665 352.545,183.782 354.37,184.39C356.365,185.079 358.523,185.152 360.56,184.6C361.894,184.27 363.162,183.715 364.31,182.96C365.421,182.186 366.369,181.2 367.1,180.06C367.954,178.63 368.426,177.005 368.47,175.34C368.56,173.171 368.307,171 367.72,168.91ZM360.66,175C360.258,175.888 359.448,176.527 358.49,176.71C357.496,177.024 356.409,176.817 355.6,176.16C354.617,175.251 353.948,174.053 353.69,172.74L352.27,167.32L359.08,165.54L360.44,170.69C361,172.65 361,174.09 360.66,175Z" style="fill:#222;fill-rule:nonzero;"/>
        </g>
        <path d="M29.76,215.46L38.32,215.46L38.32,213.03L32.35,213.03L32.35,211.11L37.22,211.11L37.22,208.75L32.35,208.75L32.35,206.98L38.32,206.98L38.32,204.55L29.76,204.55L29.76,215.46Z" style="fill:#222;fill-rule:nonzero;"/>
        <g transform="matrix(1,0,0,1,-11.68,-12.29)">
            <path d="M62.09,222.88C61.801,222.451 61.405,222.106 60.94,221.88C60.47,221.656 59.985,221.462 59.49,221.3C59.015,221.135 58.531,220.998 58.04,220.89C57.662,220.811 57.298,220.676 56.96,220.49C56.74,220.397 56.589,220.188 56.57,219.95C56.57,219.34 57.07,219.05 58.08,219.05C59.088,219.064 60.042,219.517 60.69,220.29L60.77,220.38L62.51,218.7L62.45,218.63C61.441,217.3 59.838,216.551 58.17,216.63C57.061,216.589 55.973,216.944 55.1,217.63C54.357,218.192 53.917,219.069 53.91,220C53.892,220.574 54.053,221.141 54.37,221.62C54.658,222.045 55.051,222.39 55.51,222.62C55.985,222.845 56.472,223.042 56.97,223.21C57.48,223.38 57.97,223.52 58.42,223.63C58.797,223.712 59.156,223.861 59.48,224.07C59.717,224.197 59.87,224.441 59.88,224.71C59.875,224.967 59.734,225.203 59.51,225.33C59.147,225.529 58.733,225.619 58.32,225.59C57.705,225.593 57.101,225.431 56.57,225.12C56.027,224.798 55.57,224.348 55.24,223.81L55.17,223.7L53.28,225.28L53.28,225.35C53.72,226.162 54.383,226.832 55.19,227.28C56.158,227.797 57.244,228.052 58.34,228.02C59.427,228.058 60.493,227.703 61.34,227.02C62.107,226.415 62.551,225.487 62.54,224.51C62.557,223.934 62.4,223.366 62.09,222.88Z" style="fill:#222;fill-rule:nonzero;"/>
        </g>
        <path d="M59.38,215.43L59.38,206.95L62.37,206.95L62.37,204.51L53.81,204.51L53.81,206.95L56.79,206.95L56.79,215.43L59.38,215.43Z" style="fill:#222;fill-rule:nonzero;"/>
        <g transform="matrix(1,0,0,1,-11.68,-12.29)">
            <path d="M84.07,217.22C83.123,216.922 82.133,216.78 81.14,216.8L77.63,216.8L77.63,227.71L80.91,227.71C82.678,227.844 84.432,227.288 85.8,226.16C86.88,225.115 87.472,223.662 87.43,222.16C87.43,221.479 87.315,220.803 87.09,220.16C86.87,219.54 86.531,218.969 86.09,218.48C85.533,217.898 84.838,217.464 84.07,217.22ZM81.11,225.28L80.18,225.28L80.18,219.23L81.07,219.23C83.52,219.23 84.72,220.23 84.72,222.12C84.76,224.25 83.56,225.28 81.11,225.28Z" style="fill:#222;fill-rule:nonzero;"/>
        </g>
        <path d="M326.81,215.46L326.81,204.45L325.19,204.45L321.58,206.24L321.49,206.28L322.39,208.42L324.27,207.57L324.27,215.46L326.81,215.46Z" style="fill:#222;fill-rule:nonzero;"/>
        <path d="M335.43,215.46L340.14,206.1L340.16,204.45L331.44,204.45L331.44,206.91L337.02,206.91L332.69,215.46L335.43,215.46Z" style="fill:#222;fill-rule:nonzero;"/>
        <g transform="matrix(1,0,0,1,-11.68,-12.29)">
            <path d="M376.8,218.16C375.857,217.17 374.547,216.609 373.18,216.609C371.813,216.609 370.503,217.17 369.56,218.16C367.869,220.596 367.869,223.844 369.56,226.28C370.469,227.336 371.819,227.909 373.21,227.83C374.586,227.899 375.919,227.321 376.81,226.27C378.506,223.843 378.506,220.597 376.81,218.17L376.8,218.16ZM373.21,225.29C372.575,225.315 371.967,225.022 371.59,224.51C371.145,223.829 370.934,223.021 370.99,222.21C370.934,221.398 371.137,220.589 371.57,219.9C371.944,219.391 372.549,219.101 373.18,219.13C374.67,219.13 375.39,220.13 375.39,222.21C375.39,224.29 374.68,225.29 373.21,225.29Z" style="fill:#222;fill-rule:nonzero;"/>
        </g>
        <g transform="matrix(1,0,0,1,-11.68,-12.29)">
            <path d="M359.73,216.64C357.28,216.64 355.57,218.14 355.57,220.3C355.601,222.198 357.171,223.742 359.07,223.742C359.166,223.742 359.263,223.738 359.36,223.73C360.275,223.767 361.175,223.48 361.9,222.92C361.872,223.663 361.581,224.372 361.08,224.92C360.521,225.441 359.773,225.712 359.01,225.67C358.327,225.7 357.65,225.522 357.07,225.16L356.97,225.09L355.97,227.09L356.05,227.09C356.964,227.605 358.001,227.865 359.05,227.84C362.48,227.84 364.62,225.6 364.62,221.99C364.63,218.61 362.84,216.64 359.73,216.64ZM359.91,221.64C359.844,221.649 359.777,221.653 359.71,221.653C358.884,221.653 358.204,220.976 358.2,220.15C358.2,220.149 358.2,220.149 358.2,220.148C358.2,219.33 358.873,218.658 359.69,218.658C359.754,218.658 359.817,218.662 359.88,218.67C360.95,218.67 361.64,219.25 361.64,220.15C361.629,220.993 360.933,221.681 360.09,221.681C360.03,221.681 359.97,221.677 359.91,221.67L359.91,221.64Z" style="fill:#222;fill-rule:nonzero;"/>
        </g>
        <g transform="matrix(1,0,0,1,-11.68,-12.29)">
            <path d="M272.74,156.77L264,156.77L264,157.19C263.668,171.144 257.44,184.324 246.87,193.44L246.87,139L238.11,139L238.11,184.9C237.61,184.26 237.11,183.62 236.57,183L214.68,157.34L214.68,122.47L205.91,122.47L205.91,157.34L184,183C183.56,183.52 183.13,184 182.72,184.58L182.72,139L173.95,139L173.95,193.6C163.794,185.025 157.567,172.665 156.72,159.4L156.72,156.77L147.88,156.77C147.88,157.52 147.88,158.41 147.95,159.43L147.95,274.07L150.58,275.22C168.7,283.072 188.252,287.083 208,287C229.223,286.887 250.243,282.852 270,275.1L272.76,274L272.76,157.78C272.74,157.42 272.74,157.08 272.74,156.77ZM264,186.91L264,245.73C255.49,243.725 246.877,242.183 238.2,241.11C246.02,229.81 248.89,216.74 246.75,204.54C253.667,199.932 259.543,193.926 264,186.91ZM238.53,210C239.18,220.14 235.73,230.77 228.23,239.7L214.68,255.84C215,228.27 218,224 238.53,210ZM190.66,188.62L210.26,165.62L229.87,188.62C232.906,192.162 235.229,196.257 236.71,200.68C222.21,210.44 214.42,216.45 210.3,225.61C206.17,216.44 198.36,210.42 183.82,200.61C185.318,196.227 187.64,192.171 190.66,188.66L190.66,188.62ZM182,210C202.64,224 205.63,228.26 205.92,256L192.29,239.77C184.78,230.8 181.33,220.15 182,210ZM156.7,187C161.131,193.952 166.962,199.905 173.82,204.48C171.69,216.56 174.46,229.48 182.09,240.71C173.531,241.726 165.049,243.31 156.7,245.45L156.7,187ZM156.7,254.49C167.112,251.682 177.749,249.785 188.49,248.82L196.49,258.37C183.019,259.088 169.669,261.288 156.68,264.93L156.7,254.49ZM165.7,271.61C200.11,263.38 232.58,267.23 253,271.61C232.67,277.57 200.14,282.86 165.7,271.62L165.7,271.61ZM223.79,258.61L231.79,249.15C242.643,250.256 253.406,252.117 264,254.72L264,265.25C250.822,261.844 237.365,259.632 223.79,258.64L223.79,258.61Z" style="fill:#222;fill-rule:nonzero;"/>
        </g>
        <g transform="matrix(1,0,0,1,-11.68,-12.29)">
            <path d="M98.58,210C98.58,271.35 148.46,321.09 210,321.09C271.54,321.09 321.42,271.35 321.42,210C321.42,148.65 271.54,98.91 210,98.91C148.46,98.91 98.58,148.65 98.58,210ZM210,107.65C266.61,107.65 312.66,153.56 312.66,210C312.66,266.44 266.61,312.35 210,312.35C153.39,312.35 107.34,266.44 107.34,210C107.34,153.56 153.39,107.65 210,107.65Z" style="fill:#222;fill-rule:nonzero;"/>
        </g>
        <g transform="matrix(1,0,0,1,-11.68,-12.29)">
            <path d="M278.62,264.69L278.62,269L277.3,269L277.3,264.68L275.78,264.68L275.78,263.68L280.14,263.68L280.14,264.68L278.62,264.69ZM285.79,269.01L285.79,265.21L284.41,269.01L283.52,269.01L282.14,265.21L282.14,269L280.89,269L280.89,263.64L282.66,263.64L284,267.17L285.34,263.64L287,263.64L287,269L285.79,269.01Z" style="fill:#222;fill-rule:nonzero;"/>
        </g>
    </g>
</svg>
