<svg id="Layer_1" data-name="Layer 1" xmlns="http://www.w3.org/2000/svg" viewBox="0 0 396.63 395.42"><defs><style>.cls-1{fill:#eae3d1;}.cls-2{fill:#fff;}.cls-3{fill:#fbb040;}.cls-4{fill:#da1a32;}</style></defs><ellipse class="cls-1" cx="198.32" cy="197.71" rx="198.32" ry="197.71"/><ellipse class="cls-2" cx="198.32" cy="197.71" rx="102.66" ry="102.35"/><path class="cls-3" d="M264,245.73V186.91a59.56,59.56,0,0,1-17.25,17.63c2.14,12.2-.73,25.27-8.55,36.57A242.1,242.1,0,0,1,264,245.73Z" transform="translate(-11.68 -12.29)"/><path class="cls-3" d="M183.82,200.68c14.54,9.78,22.35,15.8,26.48,25,4.12-9.16,11.91-15.17,26.41-24.93a36.19,36.19,0,0,0-6.84-12.06l-19.61-23-19.6,23A36.36,36.36,0,0,0,183.82,200.68Z" transform="translate(-11.68 -12.29)"/><path class="cls-3" d="M156.7,187v58.45a194.76,194.76,0,0,1,25.39-4.74c-7.63-11.22-10.4-24.15-8.27-36.23A59.37,59.37,0,0,1,156.7,187Z" transform="translate(-11.68 -12.29)"/><path class="cls-3" d="M223.79,258.64A226.78,226.78,0,0,1,264,265.25V254.72a234.62,234.62,0,0,0-32.23-5.54Z" transform="translate(-11.68 -12.29)"/><path class="cls-3" d="M214.68,255.88l13.55-16.14c7.5-8.93,11-19.56,10.3-29.7C218,224,215,228.27,214.68,255.88Z" transform="translate(-11.68 -12.29)"/><path class="cls-3" d="M156.7,254.5v10.44a183.72,183.72,0,0,1,39.81-6.56l-8-9.55A186.09,186.09,0,0,0,156.7,254.5Z" transform="translate(-11.68 -12.29)"/><path class="cls-3" d="M192.29,239.74,205.92,256c-.29-27.72-3.28-32-23.92-46C181.33,220.15,184.78,230.8,192.29,239.74Z" transform="translate(-11.68 -12.29)"/><path class="cls-4" d="M165.7,271.62c34.44,11.24,67,5.95,87.3,0C232.58,267.24,200.11,263.39,165.7,271.62Z" transform="translate(-11.68 -12.29)"/><path d="M210,20.61C105.08,20.61,20,105.4,20,210s85.05,189.39,190,189.39S400,314.6,400,210,314.92,20.61,210,20.61ZM338.13,337.74a181.57,181.57,0,0,1-256.26,0A180.66,180.66,0,0,1,210,29.34a180.54,180.54,0,0,1,128.13,308.4Z" transform="translate(-11.68 -12.29)"/><path d="M78.17,271.57a6,6,0,0,0,4.67-.06,5,5,0,0,0,3.24-3.43,9.37,9.37,0,0,0-.84-5.71l-3.68-8.91-19.91,8.16,3.59,8.7a10.61,10.61,0,0,0,3.79,5,5.19,5.19,0,0,0,2.87.86,6.91,6.91,0,0,0,2.64-.57A5.3,5.3,0,0,0,78.17,271.57Zm-4.61-2.22a1.3,1.3,0,0,1-.91,1,1.32,1.32,0,0,1-1.44-.11,5.85,5.85,0,0,1-1.42-2.32l-1.35-3.27,3.12-1.29,1.44,3.5A5,5,0,0,1,73.56,269.35Zm5.33-9,1.33,3.22a4,4,0,0,1,.48,2.23,1.42,1.42,0,0,1-.94.93,1,1,0,0,1-1.07-.13,3.43,3.43,0,0,1-1.06-1.55l-1.48-3.58Z" transform="translate(-11.68 -12.29)"/><path d="M95.85,282.56l-23.17,4,3.1,4.68,4.14-.71,4.47,6.77-2.28,3.51,3.13,4.74L98,285.84ZM90,288.68,87.19,293l-2.27-3.43Z" transform="translate(-11.68 -12.29)"/><polygon points="104.55 295.06 94.04 295.07 99.37 289.83 95.57 285.99 80.24 301.06 84.04 304.9 89.16 299.86 90.65 299.86 89.58 310.5 94.56 315.54 96.1 300.16 109.55 300.12 104.55 295.06"/><polygon points="115.06 304.08 102.18 321.28 106.51 324.5 119.39 307.31 115.06 304.08"/><polygon points="133.21 329.01 130.27 314.41 126.63 312.48 116.55 331.45 121.23 333.91 126.62 323.75 129.55 338.31 133.22 340.25 143.3 321.29 138.63 318.82 133.21 329.01"/><path d="M166.69,344.6a5.53,5.53,0,0,1,4.45-.29,5.92,5.92,0,0,1,4,3.24l.18.37,4.53-2.14-.1-.34a7.9,7.9,0,0,0-2.62-3.74,12.64,12.64,0,0,0-4.62-2.47,10.75,10.75,0,0,0-8.59.8,10.91,10.91,0,0,0-5.23,6.67,10.55,10.55,0,0,0,.85,8.63,11.73,11.73,0,0,0,7.12,5.29,12.13,12.13,0,0,0,3.46.51,13.67,13.67,0,0,0,1.42-.08,11.36,11.36,0,0,0,4.47-1.52l.13-.08,2.55-8.55-10-3-1.42,4.75,5,1.48-.44,1.5a6.91,6.91,0,0,1-7.42-2.78,5.53,5.53,0,0,1-.36-4.59A5.86,5.86,0,0,1,166.69,344.6Z" transform="translate(-11.68 -12.29)"/><path d="M217.81,358.88a6.51,6.51,0,0,1-5.38,2.62,5.79,5.79,0,0,1-4.17-1.6,5.61,5.61,0,0,1-1.66-4.21,5.7,5.7,0,0,1,1.59-4.28,5.84,5.84,0,0,1,4.24-1.6,7.27,7.27,0,0,1,2.53.56,5.48,5.48,0,0,1,2.1,1.6l.28.34,3.67-3.38-.19-.29a8.4,8.4,0,0,0-3.54-3,12.72,12.72,0,0,0-5.2-1.09,10.72,10.72,0,0,0-8,3.25,11.9,11.9,0,0,0,0,15.91,10.73,10.73,0,0,0,7.93,3h.08a12.17,12.17,0,0,0,5.28-1.18,9.62,9.62,0,0,0,3.86-3.3l.18-.27-3.29-3.49Z" transform="translate(-11.68 -12.29)"/><path d="M245.24,343.44A11.14,11.14,0,1,0,239,363.86a12.38,12.38,0,0,0,2.4-.25,11.15,11.15,0,0,0,3.89-20.17Zm-1.43,12.69a5.19,5.19,0,0,1-3.51,2.34,5.25,5.25,0,0,1-4.14-.81h0a6.34,6.34,0,0,1-1.68-8.28A5.24,5.24,0,0,1,238,347a6,6,0,0,1,1.1-.11,5.32,5.32,0,0,1,3,.94,5.64,5.64,0,0,1,2.45,3.81A5.82,5.82,0,0,1,243.81,356.13Z" transform="translate(-11.68 -12.29)"/><polygon points="258.87 318.61 257.15 329.79 247.44 323.62 242.97 325.58 251.63 345.23 256.58 343.06 251.92 332.5 259.41 337.28 260.93 336.62 262.35 328.06 266.96 338.52 271.91 336.35 263.25 316.7 258.87 318.61"/><path d="M299.24,318.33a7.29,7.29,0,0,0-2.53-1.12,6.72,6.72,0,0,0-3.42.23,13.71,13.71,0,0,0-4,2.05L282,324.7l12.51,17.47,4.4-3.13-3.78-5.28,2.91-2.08c2.54-1.8,4-3.74,4.39-5.78a7.13,7.13,0,0,0-1.24-5.62A8.68,8.68,0,0,0,299.24,318.33Zm-2.31,7.09a5,5,0,0,1-1.93,2.15l-2.87,2-2.79-3.89,3-2.15a4.15,4.15,0,0,1,2.87-1,2.1,2.1,0,0,1,1.37.95A1.94,1.94,0,0,1,296.93,325.42Z" transform="translate(-11.68 -12.29)"/><path d="M305.4,305.94l8.74,21.76,3.95-4-1.57-3.88,5.7-5.78,3.93,1.48,4-4-22-8.33Zm12,6.26-2.89,2.94-1.92-4.8Z" transform="translate(-11.68 -12.29)"/><polygon points="314.15 267.97 323.83 274.28 308.98 275.87 306.72 279.31 324.75 291.04 327.64 286.63 317.98 280.34 332.6 278.78 332.8 278.76 335.07 275.29 317.04 263.56 314.15 267.97"/><polygon points="328.44 237.44 326.09 243.23 331.54 250.89 322.32 252.54 319.91 258.5 335.95 255.66 343.11 258.54 345.13 253.54 337.97 250.66 328.44 237.44"/><polygon points="71.17 171.31 60.46 168.6 59.07 166.34 74.27 159.13 76.83 149.02 55.32 159.26 44.61 141.74 42.05 151.83 50.76 166.16 39.16 163.22 37.2 170.91 69.22 178.99 71.17 171.31"/><polygon points="85.26 134 56 118.74 52.31 125.77 81.58 141.03 85.26 134"/><polygon points="96.7 116.83 82.93 104.73 106.61 105.61 110.66 101.03 85.88 79.27 80.74 85.08 94.55 97.2 71 96.33 70.8 96.33 66.78 100.87 91.56 122.64 96.7 116.83"/><path d="M131.5,101.06a16.77,16.77,0,0,0,3.52.37,19,19,0,0,0,9.89-3,18.2,18.2,0,0,0,5.53-5.08,17.18,17.18,0,0,0,2.89-6.63l0-.15-7-11.6-13.54,8.15,3.76,6.2,7-4.2L145,87.54a9.79,9.79,0,0,1-4,4.32,10,10,0,0,1-7.28,1.51,9,9,0,0,1-5.83-4.51,9.38,9.38,0,0,1-1.46-7.11,9,9,0,0,1,4.43-5.56A9.67,9.67,0,0,1,138.9,75l.39.12,2.16-7-.32-.16a12.19,12.19,0,0,0-6.94-.9,19.38,19.38,0,0,0-7.59,2.68,16.42,16.42,0,0,0-8,10.54,16.76,16.76,0,0,0,2.18,12.82A16.25,16.25,0,0,0,131.5,101.06Z" transform="translate(-11.68 -12.29)"/><path d="M182.94,77l12.79-2,3.51,5.49,8.25-1.28-19.4-30.31-5.76.89-9.22,34.77,8.16-1.27Zm1.75-7.18,2.3-8.61,4.74,7.51Z" transform="translate(-11.68 -12.29)"/><path d="M225.47,70.11l4.43.66,6.17,12,9.52,1.41-7.21-13.69a10.16,10.16,0,0,0,4.81-3,10.56,10.56,0,0,0,2.62-5.59,12.14,12.14,0,0,0,0-4.09,10.17,10.17,0,0,0-1.58-3.69A9.73,9.73,0,0,0,240.38,51a21.2,21.2,0,0,0-6.25-1.83l-13.29-2L216,79.79,223.85,81Zm2.14-14.34,5.28.78c2,.3,3.39.81,4.06,1.5a2.92,2.92,0,0,1,.72,2.65A3.1,3.1,0,0,1,236,63.14a6.29,6.29,0,0,1-3.9.4l-5.56-.82Z" transform="translate(-11.68 -12.29)"/><polygon points="254.24 80.59 264.52 57.29 274 61.44 277.01 54.6 250.82 43.12 247.8 49.96 257.24 54.09 246.96 77.4 254.24 80.59"/><polygon points="277.48 94.61 285.82 84.82 296.1 93.53 287.76 103.31 293.82 108.45 315.21 83.36 309.14 78.22 300.95 87.83 290.68 79.13 298.87 69.52 292.81 64.38 271.42 89.47 277.48 94.61"/><path d="M318.11,131a15.07,15.07,0,0,0,2.25,11,16.83,16.83,0,0,0,2.61,3.26,13.13,13.13,0,0,0,3.4,2.38,12.62,12.62,0,0,0,4.05,1.21,10.75,10.75,0,0,0,1.28.07,14.07,14.07,0,0,0,3.36-.43,17.58,17.58,0,0,0,5.07-2.19l16-9.88-4.19-6.74-15.21,9.4c-4.56,2.81-7.83,2.48-10-1a6.05,6.05,0,0,1-.82-5.43,9.21,9.21,0,0,1,4.14-4.66l15.05-9.3-4.18-6.74-15.77,9.73C321.18,124.12,318.81,127.27,318.11,131Z" transform="translate(-11.68 -12.29)"/><path d="M367.72,168.91,364.32,156l-32,8.35,2,7.67L345,169.2l1.13,4.32-8.64,10.37,2.44,9.28,9.79-12a10.09,10.09,0,0,0,4.65,3.22,10.53,10.53,0,0,0,6.19.21,12.11,12.11,0,0,0,3.75-1.64,10.32,10.32,0,0,0,2.79-2.9,9.71,9.71,0,0,0,1.37-4.72A20.62,20.62,0,0,0,367.72,168.91ZM360.66,175a3,3,0,0,1-2.17,1.71,3.1,3.1,0,0,1-2.89-.55,6.32,6.32,0,0,1-1.91-3.42l-1.42-5.42,6.81-1.78,1.36,5.15C361,172.65,361,174.09,360.66,175Z" transform="translate(-11.68 -12.29)"/><polygon points="29.76 215.46 38.32 215.46 38.32 213.03 32.35 213.03 32.35 211.11 37.22 211.11 37.22 208.75 32.35 208.75 32.35 206.98 38.32 206.98 38.32 204.55 29.76 204.55 29.76 215.46"/><path d="M62.09,222.88a2.94,2.94,0,0,0-1.15-1,12.16,12.16,0,0,0-1.45-.58,12.71,12.71,0,0,0-1.45-.41,3.87,3.87,0,0,1-1.08-.4.64.64,0,0,1-.39-.54c0-.61.5-.9,1.51-.9a3.47,3.47,0,0,1,2.61,1.24l.08.09,1.74-1.68-.06-.07a5.07,5.07,0,0,0-4.28-2,4.69,4.69,0,0,0-3.07,1A3,3,0,0,0,53.91,220a2.78,2.78,0,0,0,.46,1.62,3,3,0,0,0,1.14,1,13.43,13.43,0,0,0,1.46.59c.51.17,1,.31,1.45.42a3.22,3.22,0,0,1,1.06.44.76.76,0,0,1,.4.64.73.73,0,0,1-.37.62,2.16,2.16,0,0,1-1.19.26,3.43,3.43,0,0,1-1.75-.47,3.88,3.88,0,0,1-1.33-1.31l-.07-.11-1.89,1.58,0,.07a4.85,4.85,0,0,0,1.91,1.93,6.3,6.3,0,0,0,3.15.74,4.53,4.53,0,0,0,3-1,3.15,3.15,0,0,0,1.2-2.51A2.87,2.87,0,0,0,62.09,222.88Z" transform="translate(-11.68 -12.29)"/><polygon points="59.38 215.43 59.38 206.95 62.37 206.95 62.37 204.51 53.81 204.51 53.81 206.95 56.79 206.95 56.79 215.43 59.38 215.43"/><path d="M84.07,217.22a9.16,9.16,0,0,0-2.93-.42H77.63v10.91h3.28a6.87,6.87,0,0,0,4.89-1.55,5.36,5.36,0,0,0,1.63-4,6.06,6.06,0,0,0-.34-2,5,5,0,0,0-1-1.68A4.82,4.82,0,0,0,84.07,217.22Zm-3,8.06h-.89v-6.05h.89c2.45,0,3.65,1,3.65,2.89C84.76,224.25,83.56,225.28,81.11,225.28Z" transform="translate(-11.68 -12.29)"/><polygon points="326.81 215.46 326.81 204.45 325.19 204.45 321.58 206.24 321.49 206.28 322.39 208.42 324.27 207.57 324.27 215.46 326.81 215.46"/><polygon points="335.43 215.46 340.14 206.1 340.16 204.45 331.44 204.45 331.44 206.91 337.02 206.91 332.69 215.46 335.43 215.46"/><path d="M376.8,218.16a5,5,0,0,0-7.24,0,7.12,7.12,0,0,0,0,8.12,4.48,4.48,0,0,0,3.65,1.55,4.43,4.43,0,0,0,3.6-1.56,7.07,7.07,0,0,0,0-8.1Zm-3.59,7.13a1.92,1.92,0,0,1-1.62-.78,3.73,3.73,0,0,1-.6-2.3,3.84,3.84,0,0,1,.58-2.31,1.89,1.89,0,0,1,1.61-.77c1.49,0,2.21,1,2.21,3.08S374.68,225.29,373.21,225.29Z" transform="translate(-11.68 -12.29)"/><path d="M359.73,216.64c-2.45,0-4.16,1.5-4.16,3.66a3.5,3.5,0,0,0,3.79,3.43,3.9,3.9,0,0,0,2.54-.81,3.14,3.14,0,0,1-.82,2,2.81,2.81,0,0,1-2.07.75,3.39,3.39,0,0,1-1.94-.51l-.1-.07-1,2,.08,0a5.83,5.83,0,0,0,3,.75c3.43,0,5.57-2.24,5.57-5.85C364.63,218.61,362.84,216.64,359.73,216.64Zm.18,5a1.51,1.51,0,0,1-1.71-1.49,1.49,1.49,0,0,1,1.68-1.48c1.07,0,1.76.58,1.76,1.48A1.55,1.55,0,0,1,359.91,221.67Z" transform="translate(-11.68 -12.29)"/><path d="M272.74,156.77H264v.42a49.42,49.42,0,0,1-17.13,36.25V139h-8.76V184.9c-.5-.64-1-1.28-1.54-1.9l-21.89-25.66V122.47h-8.77v34.87L184,183c-.44.52-.87,1-1.28,1.58V139h-8.77V193.6a48.83,48.83,0,0,1-17.23-34.2v-2.63h-8.84c0,.75,0,1.64.07,2.66V274.07l2.63,1.15A142.89,142.89,0,0,0,208,287a172.26,172.26,0,0,0,62-11.9l2.76-1.1V157.78C272.74,157.42,272.74,157.08,272.74,156.77ZM264,186.91v58.82a242.1,242.1,0,0,0-25.8-4.62c7.82-11.3,10.69-24.37,8.55-36.57A59.56,59.56,0,0,0,264,186.91ZM238.53,210c.65,10.14-2.8,20.77-10.3,29.7l-13.55,16.14C215,228.27,218,224,238.53,210Zm-47.87-21.38,19.6-23,19.61,23a36.19,36.19,0,0,1,6.84,12.06c-14.5,9.76-22.29,15.77-26.41,24.93-4.13-9.17-11.94-15.19-26.48-25A36.36,36.36,0,0,1,190.66,188.66ZM182,210c20.64,14,23.63,18.26,23.92,46l-13.63-16.23C184.78,230.8,181.33,220.15,182,210Zm-25.3-23a59.37,59.37,0,0,0,17.12,17.48c-2.13,12.08.64,25,8.27,36.23a194.76,194.76,0,0,0-25.39,4.74Zm0,67.49a186.09,186.09,0,0,1,31.79-5.67l8,9.55a183.72,183.72,0,0,0-39.81,6.56Zm9,17.12c34.41-8.23,66.88-4.38,87.3,0C232.67,277.57,200.14,282.86,165.7,271.62Zm58.09-13,8-9.46A234.62,234.62,0,0,1,264,254.72v10.53A226.78,226.78,0,0,0,223.79,258.64Z" transform="translate(-11.68 -12.29)"/><path d="M98.58,210c0,61.35,49.88,111.09,111.42,111.09S321.42,271.35,321.42,210,271.54,98.91,210,98.91,98.58,148.65,98.58,210ZM210,107.65c56.61,0,102.66,45.91,102.66,102.35S266.61,312.35,210,312.35,107.34,266.44,107.34,210,153.39,107.65,210,107.65Z" transform="translate(-11.68 -12.29)"/><path d="M278.62,264.69V269H277.3v-4.32h-1.52v-1h4.36v1Zm7.17,4.32v-3.8h0l-1.38,3.8h-.89l-1.38-3.8h0V269h-1.25v-5.36h1.77l1.34,3.53,1.34-3.53H287V269Z" transform="translate(-11.68 -12.29)"/></svg>