<svg xmlns:xlink="http://www.w3.org/1999/xlink" class="c-site-logo__large" width="141.8" viewBox="0 0 141.8 178" xmlns="http://www.w3.org/2000/svg" role="img" height="178" ><title>NRDC</title><g class="c-site-logo__background" fill="#FFFFFF"><path d="m1 0c-.7 3.9-1 7.8-1 11.9v95.3c0 39.1 31.7 70.8 70.9 70.8 39.1 0 70.9-31.7 70.9-70.9v-95.2c0-4-.3-8-1-11.9z" fill="#FFFFFF"></path></g><g class="c-site-logo__primary" fill="#14284B"><path d="m42.4 65.9-1.7-4.1 5.8-1.7c.3-.1.4-.3.4-.5s-.1-.4-.4-.5l-5.8-1.7 1.7-4v-.1-.1c0-.1 0-.1 0-.2-.1-.1-.1-.2-.3-.3-.1 0-.1 0-.2 0h-.1-.1l-4 1.7-1.7-5.8c-.1-.3-.3-.4-.5-.4s-.5.1-.5.4l-1.9 5.4-4-1.7h-.1-.1c-.1 0-.1 0-.2 0-.1.1-.2.1-.3.3v.2.1.1l1.7 4-5.8 1.7c-.3.1-.4.3-.4.5s.1.5.4.5l5.8 1.7-1.7 4v.1.5.2c.1.1.1.2.3.3h.2.1.1l4-1.7 1.7 5.8c.1.3.3.4.5.4s.4-.1.5-.4l1.7-5.8 4 1.7h.1.1.2c.1-.1.2-.1.3-.3 0-.1 0-.1 0-.2.2-.1.2-.1.2-.1z" fill="#14284B"></path><path d="m57.1 138.7c-.1-.6-.3-1.2-.5-1.7-1.2-2.8-3.5-4.6-6.4-5.2-.2-.4-.3-1.3-.3-2.3 0-2.3.8-5.4 4.6-6.1 3.7 12.6 10.7 21.6 16.3 21.6h10.4c.9 0 2.2-.2 3-1.3.7-1 1-2.2 1-3.4 0-1.5-.4-3-1.1-4.2-.8-1.5-2.8-3.8-7.1-4.2-1.9-3-2.9-7.2-2.9-11.6 0-9.6 4.5-20.6 13.9-24.9.1-.1.2-.2.2-.3s-.1-.3-.2-.3c-.6-.2-1.4-.3-2.1-.3-3.9 0-9.3 2.8-13.7 10-1.8 3-3.5 8.5-3.5 14.7 0 4.7.7 9.4 3.4 14.3 0 0-1.4 1.4-1.5 2.8h6.5c1.4 0 3.5 1.8 3.5 3.8h-10c-5.8-2.8-10.9-15.3-11.7-22.1-.4-3.9-.2-8.1-.2-8.1h-6.7c0-8.7 2.8-18.2 11.7-25.8.1-.1 0-.1 0-.2s-.1-.2-.3-.2-.4 0-.6 0c-3.2 0-7.4 2.5-10.3 6.5-4 5.4-6.4 13.7-6.4 22.3 0 1 0 1.6.1 3h7.1v-.1c.1 1.2.2 2.8.2 2.8s-.6.1-1.5.3c-.8.3-2 .7-3.2 1.5-2.3 1.5-4.6 4.1-4.6 8.9 0 2 .4 4.4 1.4 7.2h2.7c1.4 0 4.1 2.1 4.1 4.2h-9.4c-1.6-.9-6.8-4.3-8.9-20.9-.3-2.4-.4-4.7-.4-6.8 0-15.6 7.2-24.5 11.9-28.5 5.3-4.6 11.9-7 17.5-7 1.7 0 3.2.3 4.6.8.1-1.5 5.2-9 11.9-10.1 0 0 6.4 2.5 13.3 2.3 4.7-.1 7.4-1.2 10.6-3-1.1-1.2-1.5-2.3-1.5-3.2 0-1.8 1.7-3 3.4-3 .7 0 1.4.2 2 .6.3.2.6.5.8 1v.1c.2.4.4.8.4 1.4 0 .2.1.3.1.5 4.3-2.1 7.7-2.9 10-2.9 2 0 3.3.6 3.8 1.6-2.7.7-4.7 1.6-5.5 2 .7 1.7 2.3 2.1 4.3 2.1 2.2 0 4.8-.5 7.2-.5.8 0 1.6.1 2.4.2h-.1c-.5 1.4-1.4 3.7-1.7 4.4s-2.5 1.5-5.3 2.7-6.1 2.6-8.4 4.1c-7.5 4.8-9.1 12.4-9.1 12.4-6.1 0-8 2.8-10.4 6.7-1.1 1.8-6.8 13.3-12.9 15.3-2.6.8-4.9 2.7-4.9 5.1v.2c1-.2 2-.4 3.3-.4 5.5 0 7.8 3 7.8 3-3.3 3.3-4.1 6.4-4.1 8.7 0 1.7.5 3 .8 3.6 1 1.7 3.1 3.4 5.1 3.4.3 0 .9-.1 2-.5s7.8-4.3 10.1-8.8c1.2-2.2 1.6-4.9 1.6-7.1 0-.3 0-.5 0-.8-.1-3-.6-6-.9-9-.5-4.4-1.1-7.5-1.1-9.8 0-1.8.4-3.1 1.6-3.9s3.1-1.1 6.2-1.1c1.6-8.9 5.7-12.4 15.9-16.3 3.7-1.4 6.7-2.6 8-5.4l.1-.2c.4-1 1.6-4.1 2-5.7.1-.3.1-.6.1-1 0-.9-.4-1.8-1.1-2.5-1.4-1.4-4.7-2-7.2-2-.4 0-.8 0-1.1 0-1.3-3.7-4.9-4.9-8.7-4.9-2.9 0-5.9.7-8.1 1.4-.8-1.7-2.8-2.6-5.1-2.7-.1 0-.2 0-.3 0-3.8 0-6.5 2.6-7.1 4.8-.2.6-.3 1.1-.3 1.7 0 .5.1 1.1.3 1.6-1.7.4-3.4.6-5.2.6-6.7 0-13.2-2.7-13.3-2.7s-.4.4-1.4.7-2.4.8-3.9 1.6c-3.1 1.5-6.8 4.1-9.3 7.9 0 0-.5 0-.8 0-7.3 0-16.4 3.2-22 8.1-5.4 4.8-13.8 14.9-13.8 32.6 0 2.4.1 4.8.5 7.5 2.5 20.5 11.1 25 14.1 25h10.8c.6 0 1.3-.2 1.8-.6.1-.1.2-.2.3-.3s.1-.1.2-.2c.3-.4.6-.8.7-1.3 0 0 0-.1.1-.1.2-.7.4-1.5.4-2.3.2-.7.1-1.3 0-1.8zm42.5-15.5c-.7 3.3-3.9 5.4-7.6 7.8-.9-.5-1.3-1.2-1.5-2-.1-.2-.1-.4-.1-.6 0-1 .6-2.4 1.8-3.9l1.6 1.4c.6-.8.9-1.9.9-3.1 0-3.1-2.1-6.9-6-8.2 3.8-2.9 7.2-7.5 8.9-10.9v.1c.4 4.2 2.3 10.5 2.3 15.9 0 1.1-.1 2.4-.3 3.5z" fill="#14284B"></path><path d="m64.6 15.6c3 0 6.4-3.5 6.4-7.1 0-3.8-2.9-7.5-8-7.5h-19.2v21.5h6.4v-6.5h3.4c2.2 0 3.4-.2 5.5 1.8 1.2 1.2 4.8 4.7 4.8 4.7h8.1zm-2.6-4.9h-11.8v-4.2h11.8c1.3 0 2.2.8 2.2 2.1.1 1.3-.9 2.1-2.2 2.1z" fill="#14284B"></path><path d="m91.7 16.5c-.8 0-9.4 0-9.4 0v-9.7h9.3c2.9 0 4.8 2 4.8 4.6 0 2.5-1.4 5.1-4.7 5.1zm1.4-15.4c-.6 0-17.1 0-17.1 0v21.4h17.1c3.3 0 10.2-2.9 10.2-11.2s-6.9-10.2-10.2-10.2z" fill="#14284B"></path><path d="m121.8 23.3c-9.9 0-15.1-4-15.1-11.7 0-7.6 5.2-11.6 15.1-11.6 4 0 8 1.1 10.6 2.9l.2.1-4 4.5-.2-.1c-1.5-1.1-4.3-1.6-6.3-1.6-5.7 0-8.3 1.8-8.3 5.8s2.6 5.8 8.3 5.8c2 0 4.8-.6 6.3-1.6l.2-.1 4 4.5-.2.1c-2.7 1.9-6.6 3-10.6 3z" fill="#14284B"></path><path d="m30.9 1.1v11.1c-1-1.9-10.1-11.1-19.2-11.1h-1.7v21.4h6.4v-13.1c1.6 0 9.7 5.6 14 13.1h6.8v-21.4z" fill="#14284B"></path></g><g class="c-site-logo__secondary" fill="#14284B"><path d="m125.4 92.2v17.3c0 30.3-24.6 54.9-54.9 54.9s-54.9-24.6-54.9-54.9v-71h109.9v10 .1c0 4.8 3.8 5.5 5.5 5.5v-21.2h-121v76.6c0 33.3 27.1 60.5 60.5 60.5s60.5-27.1 60.5-60.5v-22.8c-1.8 0-5.6.7-5.6 5.5z" fill="#14284B"></path></g></svg>