<?xml version="1.0" encoding="UTF-8" standalone="no"?>
<!DOCTYPE svg PUBLIC "-//W3C//DTD SVG 1.1//EN" "http://www.w3.org/Graphics/SVG/1.1/DTD/svg11.dtd">
<svg width="100%" height="100%" viewBox="0 0 56 75" version="1.1" xmlns="http://www.w3.org/2000/svg" xmlns:xlink="http://www.w3.org/1999/xlink" xml:space="preserve" xmlns:serif="http://www.serif.com/" style="fill-rule:evenodd;clip-rule:evenodd;stroke-linejoin:round;stroke-miterlimit:2;">
    <g transform="matrix(0.441176,0,0,0.441176,-4.33824,7.10543e-15)">
        <g>
            <path d="M42.4,65.9L40.7,61.8L46.5,60.1C46.8,60 46.9,59.8 46.9,59.6C46.9,59.4 46.8,59.2 46.5,59.1L40.7,57.4L42.4,53.4L42.4,53C42.3,52.9 42.3,52.8 42.1,52.7L41.7,52.7L37.7,54.4L36,48.6C35.9,48.3 35.7,48.2 35.5,48.2C35.3,48.2 35,48.3 35,48.6L33.1,54L29.1,52.3L28.7,52.3C28.6,52.4 28.5,52.4 28.4,52.6L28.4,53L30.1,57L24.3,58.7C24,58.8 23.9,59 23.9,59.2C23.9,59.4 24,59.7 24.3,59.7L30.1,61.4L28.4,65.4L28.4,66.2C28.5,66.3 28.5,66.4 28.7,66.5L29.1,66.5L33.1,64.8L34.8,70.6C34.9,70.9 35.1,71 35.3,71C35.5,71 35.7,70.9 35.8,70.6L37.5,64.8L41.5,66.5L41.9,66.5C42,66.4 42.1,66.4 42.2,66.2L42.2,66L42.4,65.9Z" style="fill:#222;fill-rule:nonzero;"/>
            <path d="M57.1,138.7C57,138.1 56.8,137.5 56.6,137C55.4,134.2 53.1,132.4 50.2,131.8C50,131.4 49.9,130.5 49.9,129.5C49.9,127.2 50.7,124.1 54.5,123.4C58.2,136 65.2,145 70.8,145L81.2,145C82.1,145 83.4,144.8 84.2,143.7C84.9,142.7 85.2,141.5 85.2,140.3C85.2,138.8 84.8,137.3 84.1,136.1C83.3,134.6 81.3,132.3 77,131.9C75.1,128.9 74.1,124.7 74.1,120.3C74.1,110.7 78.6,99.7 88,95.4C88.1,95.3 88.2,95.2 88.2,95.1C88.2,95 88.1,94.8 88,94.8C87.4,94.6 86.6,94.5 85.9,94.5C82,94.5 76.6,97.3 72.2,104.5C70.4,107.5 68.7,113 68.7,119.2C68.7,123.9 69.4,128.6 72.1,133.5C72.1,133.5 70.7,134.9 70.6,136.3L77.1,136.3C78.5,136.3 80.6,138.1 80.6,140.1L70.6,140.1C64.8,137.3 59.7,124.8 58.9,118C58.5,114.1 58.7,109.9 58.7,109.9L52,109.9C52,101.2 54.8,91.7 63.7,84.1C63.8,84 63.7,84 63.7,83.9C63.7,83.8 63.6,83.7 63.4,83.7L62.8,83.7C59.6,83.7 55.4,86.2 52.5,90.2C48.5,95.6 46.1,103.9 46.1,112.5C46.1,113.5 46.1,114.1 46.2,115.5L53.3,115.5L53.3,115.4C53.4,116.6 53.5,118.2 53.5,118.2C53.5,118.2 52.9,118.3 52,118.5C51.2,118.8 50,119.2 48.8,120C46.5,121.5 44.2,124.1 44.2,128.9C44.2,130.9 44.6,133.3 45.6,136.1L48.3,136.1C49.7,136.1 52.4,138.2 52.4,140.3L43,140.3C41.4,139.4 36.2,136 34.1,119.4C33.8,117 33.7,114.7 33.7,112.6C33.7,97 40.9,88.1 45.6,84.1C50.9,79.5 57.5,77.1 63.1,77.1C64.8,77.1 66.3,77.4 67.7,77.9C67.8,76.4 72.9,68.9 79.6,67.8C79.6,67.8 86,70.3 92.9,70.1C97.6,70 100.3,68.9 103.5,67.1C102.4,65.9 102,64.8 102,63.9C102,62.1 103.7,60.9 105.4,60.9C106.1,60.9 106.8,61.1 107.4,61.5C107.7,61.7 108,62 108.2,62.5L108.2,62.6C108.4,63 108.6,63.4 108.6,64C108.6,64.2 108.7,64.3 108.7,64.5C113,62.4 116.4,61.6 118.7,61.6C120.7,61.6 122,62.2 122.5,63.2C119.8,63.9 117.8,64.8 117,65.2C117.7,66.9 119.3,67.3 121.3,67.3C123.5,67.3 126.1,66.8 128.5,66.8C129.3,66.8 130.1,66.9 130.9,67L130.8,67C130.3,68.4 129.4,70.7 129.1,71.4C128.8,72.1 126.6,72.9 123.8,74.1C121,75.3 117.7,76.7 115.4,78.2C107.9,83 106.3,90.6 106.3,90.6C100.2,90.6 98.3,93.4 95.9,97.3C94.8,99.1 89.1,110.6 83,112.6C80.4,113.4 78.1,115.3 78.1,117.7L78.1,117.9C79.1,117.7 80.1,117.5 81.4,117.5C86.9,117.5 89.2,120.5 89.2,120.5C85.9,123.8 85.1,126.9 85.1,129.2C85.1,130.9 85.6,132.2 85.9,132.8C86.9,134.5 89,136.2 91,136.2C91.3,136.2 91.9,136.1 93,135.7C94.1,135.3 100.8,131.4 103.1,126.9C104.3,124.7 104.7,122 104.7,119.8L104.7,119C104.6,116 104.1,113 103.8,110C103.3,105.6 102.7,102.5 102.7,100.2C102.7,98.4 103.1,97.1 104.3,96.3C105.5,95.5 107.4,95.2 110.5,95.2C112.1,86.3 116.2,82.8 126.4,78.9C130.1,77.5 133.1,76.3 134.4,73.5L134.5,73.3C134.9,72.3 136.1,69.2 136.5,67.6C136.6,67.3 136.6,67 136.6,66.6C136.6,65.7 136.2,64.8 135.5,64.1C134.1,62.7 130.8,62.1 128.3,62.1L127.2,62.1C125.9,58.4 122.3,57.2 118.5,57.2C115.6,57.2 112.6,57.9 110.4,58.6C109.6,56.9 107.6,56 105.3,55.9L105,55.9C101.2,55.9 98.5,58.5 97.9,60.7C97.7,61.3 97.6,61.8 97.6,62.4C97.6,62.9 97.7,63.5 97.9,64C96.2,64.4 94.5,64.6 92.7,64.6C86,64.6 79.5,61.9 79.4,61.9C79.3,61.9 79,62.3 78,62.6C77,62.9 75.6,63.4 74.1,64.2C71,65.7 67.3,68.3 64.8,72.1L64,72.1C56.7,72.1 47.6,75.3 42,80.2C36.6,85 28.2,95.1 28.2,112.8C28.2,115.2 28.3,117.6 28.7,120.3C31.2,140.8 39.8,145.3 42.8,145.3L53.6,145.3C54.2,145.3 54.9,145.1 55.4,144.7C55.5,144.6 55.8,144.3 55.9,144.2C56.2,143.8 56.5,143.4 56.6,142.9C56.6,142.9 56.6,142.8 56.7,142.8C56.9,142.1 57.1,141.3 57.1,140.5C57.3,139.8 57.2,139.2 57.1,138.7ZM99.6,123.2C98.9,126.5 95.7,128.6 92,131C91.1,130.5 90.7,129.8 90.5,129C90.4,128.8 90.4,128.6 90.4,128.4C90.4,127.4 91,126 92.2,124.5L93.8,125.9C94.4,125.1 94.7,124 94.7,122.8C94.7,119.7 92.6,115.9 88.7,114.6C92.5,111.7 95.9,107.1 97.6,103.7L97.6,103.8C98,108 99.9,114.3 99.9,119.7C99.9,120.8 99.8,122.1 99.6,123.2Z" style="fill:#222;fill-rule:nonzero;"/>
            <path d="M64.6,15.6C67.6,15.6 71,12.1 71,8.5C71,4.7 68.1,1 63,1L43.8,1L43.8,22.5L50.2,22.5L50.2,16L53.6,16C55.8,16 57,15.8 59.1,17.8C60.3,19 63.9,22.5 63.9,22.5L72,22.5L64.6,15.6ZM62,10.7L50.2,10.7L50.2,6.5L62,6.5C63.3,6.5 64.2,7.3 64.2,8.6C64.3,9.9 63.3,10.7 62,10.7Z" style="fill:#222;fill-rule:nonzero;"/>
            <path d="M91.7,16.5L82.3,16.5L82.3,6.8L91.6,6.8C94.5,6.8 96.4,8.8 96.4,11.4C96.4,13.9 95,16.5 91.7,16.5ZM93.1,1.1L76,1.1L76,22.5L93.1,22.5C96.4,22.5 103.3,19.6 103.3,11.3C103.3,3 96.4,1.1 93.1,1.1Z" style="fill:#222;fill-rule:nonzero;"/>
            <path d="M121.8,23.3C111.9,23.3 106.7,19.3 106.7,11.6C106.7,4 111.9,0 121.8,0C125.8,0 129.8,1.1 132.4,2.9L132.6,3L128.6,7.5L128.4,7.4C126.9,6.3 124.1,5.8 122.1,5.8C116.4,5.8 113.8,7.6 113.8,11.6C113.8,15.6 116.4,17.4 122.1,17.4C124.1,17.4 126.9,16.8 128.4,15.8L128.6,15.7L132.6,20.2L132.4,20.3C129.7,22.2 125.8,23.3 121.8,23.3Z" style="fill:#222;fill-rule:nonzero;"/>
            <path d="M30.9,1.1L30.9,12.2C29.9,10.3 20.8,1.1 11.7,1.1L10,1.1L10,22.5L16.4,22.5L16.4,9.4C18,9.4 26.1,15 30.4,22.5L37.2,22.5L37.2,1.1L30.9,1.1Z" style="fill:#222;fill-rule:nonzero;"/>
        </g>
        <g>
            <path d="M125.4,92.2L125.4,109.5C125.4,139.8 100.8,164.4 70.5,164.4C40.2,164.4 15.6,139.8 15.6,109.5L15.6,38.5L125.5,38.5L125.5,48.6C125.5,53.4 129.3,54.1 131,54.1L131,32.9L10,32.9L10,109.5C10,142.8 37.1,170 70.5,170C103.9,170 131,142.9 131,109.5L131,86.7C129.2,86.7 125.4,87.4 125.4,92.2Z" style="fill:#222;fill-rule:nonzero;"/>
        </g>
    </g>
</svg>
