<svg xmlns:xlink="http://www.w3.org/1999/xlink" height="29" viewBox="0 0 150 28.5" width="150" xmlns="http://www.w3.org/2000/svg"><title>Politico</title><path d="M4.2,17.1v11.4H0v-28h4.8c2.3,0,4.1,0.2,5.3,0.5c1.2,0.3,2.3,0.9,3.2,1.8c1.6,1.6,2.4,3.5,2.4,5.9 c0,2.6-0.9,4.6-2.6,6.1s-4,2.2-6.9,2.2C6.2,17.1,4.2,17.1,4.2,17.1z M4.2,13.2h1.6c3.9,0,5.8-1.5,5.8-4.5c0-2.9-2-4.3-6-4.3H4.2 C4.2,4.4,4.2,13.2,4.2,13.2z M17,14.4c0-3.9,1.4-7.3,4.3-10.1C24.2,1.4,27.7,0,31.7,0c4,0,7.4,1.4,10.2,4.3 c2.9,2.8,4.3,6.3,4.3,10.3c0,4-1.4,7.4-4.3,10.2C39,27.6,35.6,29,31.5,29c-3.6,0-6.8-1.3-9.7-3.7C18.6,22.5,17,18.9,17,14.4z M21.3,14.4c0,3.1,1,5.6,3.1,7.6c2.1,2,4.4,3,7.2,3c2.9,0,5.4-1,7.4-3c2-2.1,3-4.5,3-7.5c0-3-1-5.5-3-7.5c-2-2-4.4-3-7.3-3 c-2.9,0-5.4,1-7.4,3C22.3,9,21.3,11.5,21.3,14.4z M52.8,0.5v24H61v4H48.6v-28C48.6,0.5,52.8,0.5,52.8,0.5z M68.2,0.5v28H64v-28 C64,0.5,68.2,0.5,68.2,0.5z M81.9,4.5v24h-4.2v-24h-6.4v-4h17.1v4L81.9,4.5L81.9,4.5z M95.5,0.5v28h-4.2v-28 C91.3,0.5,95.5,0.5,95.5,0.5z M120.1,2v5c-2.4-2-5-3.1-7.6-3.1c-2.9,0-5.3,1-7.3,3.1c-2,2.1-3,4.6-3,7.5c0,2.9,1,5.4,3,7.4 c2,2,4.4,3,7.3,3c1.5,0,2.7-0.2,3.8-0.7c0.6-0.2,1.2-0.6,1.8-1c0.6-0.4,1.3-0.9,2-1.5v5.1c-2.4,1.4-4.9,2.1-7.6,2.1 c-4,0-7.4-1.4-10.2-4.2c-2.8-2.8-4.2-6.2-4.2-10.2c0-3.6,1.2-6.7,3.5-9.5c2.9-3.4,6.6-5.1,11.2-5.1C115.4,0,117.8,0.7,120.1,2z M120.8,14.4c0-3.9,1.4-7.3,4.3-10.1C128,1.4,131.4,0,135.4,0c4,0,7.4,1.4,10.2,4.3c2.9,2.8,4.3,6.3,4.3,10.3c0,4-1.4,7.4-4.3,10.2 c-2.9,2.8-6.4,4.2-10.4,4.2c-3.6,0-6.8-1.3-9.7-3.7C122.3,22.5,120.8,18.9,120.8,14.4L120.8,14.4z M125,14.4c0,3.1,1,5.6,3.1,7.6 c2.1,2,4.4,3,7.2,3c2.9,0,5.4-1,7.4-3c2-2.1,3-4.5,3-7.5c0-3-1-5.5-3-7.5c-2-2-4.4-3-7.3-3c-2.9,0-5.4,1-7.4,3 C126,9,125,11.5,125,14.4z"></path></svg>