<svg xmlns:xlink="http://www.w3.org/1999/xlink" height="32" viewBox="0 0 150 31.5" width="150" xmlns="http://www.w3.org/2000/svg"><title>Prudential</title><path d="M143.7,25.1c0.6,0,0.9-0.1,1.1-0.3c0.2-0.2,0.2-0.6,0.2-1.2V10.4c0-0.7-0.1-1.1-0.2-1.3 c-0.2-0.3-0.6-0.4-1.2-0.4h-0.5v-1l5.3-0.4v16.4c0,0.8,0.2,1.3,0.7,1.4c0.2,0,0.4,0.1,0.8,0.1v1h-6.3V25.1L143.7,25.1z M135.4,20.3 c0.5-0.4,1.4-0.7,2.6-1v1.9c0,1.1-0.2,1.9-0.5,2.4c-0.4,0.7-0.9,1.1-1.6,1.1c-0.4,0-0.7-0.2-1-0.5c-0.3-0.4-0.4-0.9-0.4-1.5 C134.5,21.6,134.8,20.8,135.4,20.3 M133.1,15.3c0.1-0.3,0.4-0.5,0.8-0.8c0.5-0.3,1.1-0.4,1.7-0.4c1.6,0,2.4,0.7,2.4,2.2v2 c-2.4,0.5-4.1,1-5.1,1.6c-1.3,0.8-2,1.9-2,3.3c0,0.8,0.3,1.5,0.8,2.2c0.7,0.8,1.6,1.2,3,1.2c0.7,0,1.5-0.2,2.1-0.6 c0.6-0.4,1.1-0.9,1.4-1.5V25c0,0.5,0,0.9,0,1.1h4.6v-1h-0.2c-0.7,0-1.1-0.5-1.1-1.5v-6.1c0-3-1.7-4.4-5-4.4c-1.4,0-2.5,0.3-3.4,0.9 c-0.9,0.6-1.4,1.3-1.4,2.2c0,0.6,0.2,1.1,0.6,1.5c0.4,0.3,0.8,0.5,1.3,0.5c0.5,0,1-0.2,1.3-0.5c0.4-0.3,0.5-0.7,0.5-1.1 c0-1-0.5-1.5-1.6-1.5c-0.4,0-0.7,0.1-1,0.4L133.1,15.3C133.1,15.3,133.1,15.3,133.1,15.3 M44.1,18.2c2.1,0,3.8-0.4,5-1.2 c1.4-0.9,2.1-2.3,2.1-4c0-1.9-0.7-3.2-2.2-4.1c-1.2-0.8-2.9-1.2-5-1.2h-7v1c0.8,0,1.3,0.1,1.5,0.2c0.3,0.2,0.5,0.7,0.5,1.6v13.1 c0,0.6-0.1,1.1-0.4,1.3c-0.2,0.2-0.7,0.3-1.3,0.3h-0.3v1h8.3v-1h-0.9c-0.7,0-1.1-0.1-1.4-0.3c-0.2-0.2-0.4-0.6-0.4-1.3v-5.3H44.1z M47.5,13c0,2.7-1.1,4.1-3.3,4.1H43V8.7h1.2C46.4,8.7,47.5,10.1,47.5,13 M56.6,15.8c0.5-1.9,1.5-2.8,3.1-2.8c0.6,0,1,0.2,1.4,0.5 c0.3,0.3,0.5,0.7,0.5,1.2c0,0.5-0.1,0.9-0.4,1.2c-0.3,0.4-0.8,0.6-1.3,0.6c-0.5,0-0.9-0.1-1.1-0.4c-0.3-0.3-0.4-0.6-0.4-1 c0,0,0-0.1,0.1-0.3c-0.5,0.6-0.8,1.6-1.1,3.1c-0.2,1.2-0.3,2.2-0.3,3.2v2.5c0,0.6,0.1,1,0.2,1.2c0.2,0.2,0.6,0.3,1.3,0.3h0.4v1h-7 v-1h0.3c0.5,0,0.8-0.1,1-0.3c0.2-0.2,0.3-0.6,0.3-1.2v-5.5c0-1.9-0.1-3-0.2-3.2c-0.1-0.3-0.4-0.5-0.9-0.5h-0.4v-1h4.4L56.6,15.8z M71,24.1c-0.1,0-0.1,0.1-0.2,0.1L71,24.1c-0.2,0.6-0.6,1.2-1.2,1.6c-0.7,0.5-1.5,0.8-2.4,0.8c-1.5,0-2.5-0.4-3.1-1.2 c-0.5-0.6-0.7-1.6-0.7-3v-5.4c0-1.2-0.1-1.9-0.2-2.1c-0.1-0.3-0.5-0.4-1-0.4h-0.1v-1.1h4.8v9.4c0,1.2,0.5,1.9,1.6,1.9 c0.9,0,1.4-0.6,1.7-1.8c0.1-0.5,0.2-1.1,0.2-2v-3.9c0-1.3-0.1-2.1-0.2-2.2c-0.2-0.2-0.6-0.3-1.2-0.3h-0.4v-1.1h5.3v9.6 c0,1,0.1,1.7,0.2,1.8c0.2,0.2,0.5,0.3,0.9,0.3h0.3v1h-4.7l-0.1-2.1l0.1,0.1L71,24.1L71,24.1z M81.4,13c-1.7,0-3.1,0.7-4.2,2.2 c-0.9,1.3-1.4,2.8-1.4,4.5c0,1.8,0.3,3.4,1,4.5c0.9,1.5,2.3,2.2,4.1,2.2c1,0,1.8-0.3,2.5-0.9c0.6-0.5,0.9-1,1.1-1.6l-0.1,0.1 L84.4,24l0.1,2.1h4.6v-1h-0.2c-0.5,0-0.9-0.1-1-0.4c-0.1-0.2-0.2-0.6-0.2-1.1V7.2l-5.4,0.4v1h0.3c0.7,0,1.1,0.2,1.3,0.5 c0.1,0.2,0.2,0.7,0.2,1.5c0,2.1,0,3.3,0.1,3.6C83.7,13.4,82.8,13,81.4,13 M84.1,18.4V21c0,0.7-0.1,1.3-0.2,1.8c-0.3,1.4-1,2.1-2,2.1 c-1.4,0-2.2-1.7-2.2-5.1c0-1.5,0.1-2.6,0.2-3.3c0.3-1.4,1-2.1,2-2.1C83.4,14.3,84.1,15.7,84.1,18.4 M93,19.4h7.8 c0-1.9-0.4-3.4-1.3-4.5c-1-1.3-2.4-1.9-4.2-1.9c-1.7,0-3.1,0.6-4.3,1.9c-1.1,1.3-1.7,2.9-1.7,4.9c0,2,0.5,3.6,1.5,4.8 c1.1,1.3,2.6,2,4.6,2c1.5,0,2.8-0.6,3.9-1.7c0.9-1,1.4-2,1.4-3.2h-1.3c0,0.8-0.3,1.6-1,2.4c-0.7,0.8-1.6,1.3-2.5,1.3 c-1.4,0-2.3-1-2.7-3C93,21.6,93,20.6,93,19.4 M95.2,14c1.3,0,2,1.5,2,4.4H93c0-0.5,0-0.8,0.1-1.1C93.2,15.1,93.9,14,95.2,14 M105.8,15c0.3-0.6,0.8-1.1,1.4-1.4c0.6-0.4,1.3-0.6,2.1-0.6c2.6,0,3.8,1.4,3.8,4.2V23c0,0.6,0,1,0,1.2c0,0.6,0.4,0.9,1.2,0.9h0.3v1 h-5v-9.4c0-0.6-0.1-1.1-0.2-1.4c-0.2-0.4-0.6-0.6-1.3-0.6c-0.6,0-1.1,0.3-1.4,0.9c-0.4,0.6-0.5,1.4-0.5,2.6v4.8 c0,1.1,0.1,1.7,0.2,1.8c0.2,0.2,0.6,0.3,1.1,0.3h0.2v1h-6.5v-1h0.3c0.7,0,1-0.3,1.1-0.9c0-0.1,0-0.6,0-1.3v-6.4c0-1-0.1-1.6-0.2-1.8 c-0.1-0.2-0.5-0.3-0.9-0.3h-0.3v-1h4.6V15z M119.4,26.5c-2.1,0-3.2-1.2-3.2-3.6v-8.5H114v-1h0.3c1.3,0,2.3-0.7,3.2-2.1 c0.7-1.2,1.1-2.4,1.2-3.6h1.1v5.8h2.4v1h-2.4v8.9c0,1.1,0.3,1.6,1,1.6c0.6,0,0.9-0.5,1.1-1.5c0.1-0.4,0.1-1.1,0.1-2.1h1.2 c0,1.8-0.2,3-0.5,3.6C122.1,26,121,26.5,119.4,26.5 M16,1C7,1,1.1,8.4,1.1,15.3c0,4,1,5.9,2,7.8c1.3-3.6,4-10.7,4-10.7 s1.2-0.6,1.2-0.5l1.8-4.5l1.2-0.6l1.4-3l3.1,0.5l6.3,3.5l7.1,2C27.5,5,22.3,1,16,1 M15.9,31.5c-3.9,0-8.7-1.4-12.1-5.6H28 C25.2,29.5,20.4,31.5,15.9,31.5 M20.7,25.2h-2.2l4.1-5.1l0.4,0.8L20.7,25.2z M22.8,9l-7-4.1l-2.6-0.5v1.9l2,1.8l-2.8-0.2 c0,0,0.1,0.1,2.4,2.6l10.5,1.7l1.8,1.2l-4.8,0.2l-2,7.2l-6.5,4.3H9.7l1.4-2.8l-0.2-0.1l-3.8,2.9H6.2l3.9-5.5 c0.2-1.6,0.1-0.9,0.3-3.7l-0.6-0.8l-1.6,6.1L5,25.2H4.1l1.9-2.7l2.7-8.3l-0.7,0.3l-1.2,3.3l-0.8,0.5c0,0-1.9,4.7-2.9,7 c-1.5-2.1-3.1-5-3.1-9.9C0,7.9,6.4,0,16,0c9.2,0,14.2,7.4,15,11.2L22.8,9z M27.4,19.7L26,20.9l-2.7,4.3h-1.7l1.7-3.1l1.4-1.1l2-5.6 l2.1,0.9L27.4,19.7z M28.6,25.2h-3.5l3.4-5.3l1-3.4l2.1,0.7C31.4,19.8,30.5,22.6,28.6,25.2 M24.3,18.8L23.2,19l0.3-2.1l-0.3-0.4 l0.3-2.4l2.7,1.1L24.3,18.8z M123.9,25.1h0.3c0.5,0,0.8-0.2,1-0.5c0.1-0.2,0.1-0.8,0.1-1.7v-6.7c0-0.9-0.1-1.4-0.3-1.6 c-0.2-0.2-0.4-0.2-0.8-0.2h-0.3v-1h4.9v9.5c0,1.1,0.1,1.7,0.2,1.8c0.2,0.2,0.5,0.3,0.9,0.3h0.3v1h-6.3L123.9,25.1L123.9,25.1z M124.9,9.8c0-0.6,0.2-1.1,0.6-1.5c0.4-0.4,0.9-0.6,1.5-0.6c0.6,0,1.1,0.2,1.5,0.6c0.4,0.4,0.6,0.9,0.6,1.5c0,0.6-0.2,1.1-0.6,1.5 c-0.4,0.4-0.9,0.6-1.5,0.6c-0.6,0-1.1-0.2-1.5-0.6C125.1,10.9,124.9,10.4,124.9,9.8"></path></svg>