<?xml version="1.0" encoding="UTF-8" standalone="no"?>
<!DOCTYPE svg PUBLIC "-//W3C//DTD SVG 1.1//EN" "http://www.w3.org/Graphics/SVG/1.1/DTD/svg11.dtd">
<svg width="100%" height="100%" viewBox="0 0 150 30" version="1.1" xmlns="http://www.w3.org/2000/svg" xmlns:xlink="http://www.w3.org/1999/xlink" xml:space="preserve" xmlns:serif="http://www.serif.com/" style="fill-rule:evenodd;clip-rule:evenodd;stroke-linejoin:round;stroke-miterlimit:2;">
    <g transform="matrix(0.870494,0,0,0.870494,-0.297747,0.201599)">
        <g id="platformsh_logo_svg__aedaead0-bf20-45c7-a212-dce5d35b4ab7">
            <g id="platformsh_logo_svg__b96a14d9-7a02-40ae-94b5-88ede38115f4">
                <path d="M144.158,0L172.658,0L172.658,11.33L144.158,11.33L144.158,0ZM144.158,24.647L172.658,24.647L172.658,28.5L144.158,28.5L144.158,24.647ZM144.158,14.994L172.658,14.994L172.658,20.803L144.158,20.803L144.158,14.994ZM0.342,13.826L3.946,13.826L3.946,15.972C4.424,15.231 5.075,14.618 5.842,14.185C6.651,13.724 7.567,13.486 8.498,13.496C10.163,13.483 11.75,14.216 12.82,15.493C14.085,17.055 14.719,19.036 14.597,21.043C14.723,23.097 14.086,25.128 12.81,26.743C11.737,28.021 10.146,28.754 8.478,28.739C7.738,28.753 7.004,28.599 6.331,28.29C5.546,27.867 4.842,27.305 4.255,26.633L4.255,34L0.342,34L0.342,13.826ZM4.165,20.883C4.07,22.176 4.423,23.463 5.164,24.527C5.729,25.261 6.603,25.692 7.529,25.695C8.402,25.707 9.232,25.307 9.765,24.617C10.457,23.571 10.774,22.321 10.664,21.073C10.756,19.862 10.428,18.656 9.735,17.659C9.193,16.953 8.349,16.542 7.459,16.551C6.55,16.537 5.682,16.938 5.104,17.639C4.414,18.574 4.081,19.725 4.165,20.883ZM16.384,28.44L16.384,8.265L20.247,8.265L20.247,28.44L16.384,28.44ZM25.797,18.288L22.303,17.649C22.583,16.403 23.289,15.294 24.3,14.514C25.597,13.757 27.094,13.409 28.592,13.516C29.905,13.447 31.218,13.654 32.445,14.125C33.207,14.426 33.852,14.965 34.282,15.662C34.713,16.763 34.89,17.947 34.801,19.126L34.801,23.638C34.774,24.587 34.838,25.536 34.991,26.473C35.131,27.166 35.363,27.838 35.68,28.47L31.777,28.47C31.677,28.21 31.547,27.831 31.407,27.322C31.337,27.092 31.297,26.942 31.267,26.873C30.657,27.481 29.94,27.972 29.151,28.32C28.387,28.641 27.565,28.804 26.735,28.799C25.437,28.869 24.161,28.428 23.182,27.571C22.322,26.777 21.848,25.647 21.884,24.477C21.872,23.701 22.076,22.937 22.473,22.271C22.867,21.623 23.444,21.106 24.13,20.783C25.116,20.363 26.148,20.061 27.205,19.885C28.485,19.682 29.744,19.365 30.968,18.937L30.968,18.547C31.022,17.965 30.817,17.388 30.409,16.97C29.784,16.559 29.037,16.376 28.293,16.451C27.728,16.422 27.167,16.564 26.686,16.86C26.25,17.234 25.94,17.732 25.797,18.288ZM30.968,21.422C30.469,21.582 29.68,21.782 28.612,22.011C27.881,22.129 27.171,22.355 26.506,22.68C26.043,22.981 25.762,23.496 25.757,24.048C25.754,24.579 25.971,25.089 26.356,25.455C26.769,25.85 27.323,26.062 27.893,26.044C28.616,26.037 29.317,25.795 29.89,25.355C30.331,25.043 30.657,24.594 30.818,24.078C30.945,23.457 30.996,22.823 30.968,22.191L30.968,21.422ZM44.075,13.826L44.075,16.91L41.44,16.91L41.44,22.79C41.415,23.486 41.438,24.183 41.509,24.876C41.56,25.077 41.685,25.252 41.859,25.365C42.045,25.506 42.275,25.576 42.508,25.565C43.044,25.523 43.57,25.395 44.065,25.186L44.394,28.18C43.427,28.581 42.387,28.778 41.34,28.759C40.694,28.768 40.053,28.649 39.453,28.41C38.987,28.222 38.579,27.912 38.275,27.511C37.983,27.056 37.795,26.541 37.726,26.004C37.622,25.1 37.582,24.189 37.606,23.279L37.606,16.91L35.78,16.91L35.78,13.826L37.556,13.826L37.556,10.921L41.44,8.665L41.44,13.826L44.075,13.826ZM45.203,13.826L47.349,13.826L47.349,12.728C47.305,11.796 47.437,10.865 47.738,9.982C48.042,9.342 48.552,8.822 49.186,8.505C50.013,8.097 50.929,7.901 51.851,7.936C52.948,7.934 54.038,8.099 55.085,8.425L54.556,11.13C53.979,10.983 53.386,10.906 52.789,10.901C52.349,10.861 51.911,11.006 51.582,11.3C51.302,11.746 51.186,12.275 51.252,12.797L51.252,13.796L54.147,13.796L54.147,16.79L51.252,16.79L51.252,28.44L47.349,28.44L47.349,16.87L45.203,16.87L45.203,13.826ZM54.826,20.963C54.85,19.659 55.192,18.381 55.824,17.24C56.427,16.073 57.366,15.113 58.519,14.484C59.708,13.827 61.044,13.483 62.403,13.486C64.433,13.415 66.404,14.197 67.833,15.642C69.255,17.088 70.024,19.056 69.959,21.083C70.025,23.127 69.253,25.111 67.823,26.573C66.412,28.024 64.455,28.818 62.432,28.759C61.101,28.762 59.788,28.451 58.599,27.851C57.419,27.274 56.448,26.342 55.824,25.186C55.148,23.882 54.805,22.431 54.826,20.963ZM58.819,21.173C58.727,22.366 59.083,23.551 59.817,24.497C60.443,25.247 61.376,25.673 62.353,25.655C63.332,25.672 64.268,25.246 64.898,24.497C65.63,23.539 65.986,22.345 65.896,21.143C65.98,19.957 65.624,18.78 64.898,17.839C64.263,17.097 63.329,16.675 62.353,16.691C61.378,16.673 60.446,17.095 59.817,17.839C59.082,18.773 58.716,19.946 58.789,21.133L58.819,21.173ZM75.21,28.44L71.347,28.44L71.347,13.826L74.94,13.826L74.94,15.902C75.35,15.15 75.915,14.493 76.597,13.975C77.096,13.662 77.675,13.499 78.265,13.506C79.164,13.51 80.045,13.763 80.81,14.235L79.612,17.609C79.083,17.221 78.451,16.998 77.795,16.97C77.301,16.955 76.817,17.114 76.428,17.419C75.969,17.851 75.658,18.417 75.539,19.036C75.25,20.66 75.14,22.31 75.21,23.958L75.21,28.44ZM81.968,13.826L85.532,13.826L85.532,15.822C86.6,14.378 88.287,13.516 90.084,13.496C90.932,13.473 91.772,13.673 92.519,14.075C93.224,14.491 93.798,15.097 94.176,15.822C94.745,15.104 95.455,14.509 96.263,14.075C96.994,13.688 97.811,13.489 98.639,13.496C99.588,13.467 100.529,13.691 101.364,14.145C102.112,14.591 102.697,15.267 103.031,16.072C103.343,17.038 103.479,18.052 103.43,19.066L103.43,28.41L99.587,28.41L99.587,20.085C99.674,19.131 99.537,18.171 99.188,17.28C98.829,16.727 98.198,16.41 97.541,16.451C96.992,16.456 96.458,16.63 96.013,16.95C95.529,17.308 95.177,17.817 95.015,18.398C94.765,19.375 94.658,20.384 94.696,21.392L94.696,28.38L90.792,28.38L90.792,20.394C90.84,19.471 90.773,18.545 90.593,17.639C90.486,17.271 90.261,16.949 89.954,16.72C89.603,16.497 89.191,16.389 88.776,16.411C88.202,16.431 87.648,16.626 87.189,16.97C86.713,17.315 86.362,17.805 86.191,18.368C85.94,19.345 85.835,20.354 85.881,21.362L85.881,28.46L81.968,28.46L81.968,13.826ZM105.387,28.44L105.387,24.567L109.25,24.567L109.25,28.44L105.387,28.44ZM110.697,24.267L114.58,23.678C114.695,24.352 115.05,24.962 115.579,25.395C116.2,25.817 116.945,26.021 117.695,25.974C118.489,26.03 119.281,25.838 119.961,25.425C120.275,25.19 120.46,24.819 120.46,24.427C120.469,24.155 120.373,23.89 120.191,23.688C119.802,23.425 119.358,23.255 118.893,23.189C115.778,22.524 113.802,21.895 112.963,21.302C111.852,20.583 111.195,19.331 111.236,18.008C111.226,16.772 111.777,15.596 112.734,14.814C114.082,13.846 115.732,13.389 117.385,13.526C118.935,13.419 120.482,13.766 121.838,14.524C122.83,15.213 123.54,16.238 123.834,17.409L120.181,18.088C120.056,17.558 119.74,17.091 119.292,16.78C118.734,16.444 118.086,16.287 117.435,16.331C116.679,16.276 115.922,16.421 115.239,16.75C114.967,16.919 114.8,17.218 114.8,17.539C114.805,17.822 114.951,18.085 115.189,18.238C116.341,18.758 117.556,19.124 118.803,19.326C120.345,19.553 121.82,20.112 123.125,20.963C123.946,21.685 124.392,22.746 124.333,23.838C124.334,25.185 123.715,26.459 122.656,27.292C121.222,28.361 119.448,28.875 117.665,28.739C116.003,28.831 114.353,28.405 112.943,27.521C111.821,26.749 111.021,25.591 110.697,24.267ZM129.774,8.265L129.774,15.682C131.402,13.616 134.246,12.911 136.651,13.975C137.293,14.244 137.851,14.678 138.269,15.233C138.627,15.747 138.879,16.327 139.007,16.94C139.164,17.9 139.231,18.873 139.207,19.845L139.207,28.42L135.344,28.42L135.344,20.713C135.397,19.736 135.323,18.757 135.124,17.799C134.985,17.388 134.71,17.036 134.346,16.8C133.926,16.544 133.44,16.415 132.948,16.431C132.343,16.423 131.748,16.585 131.231,16.9C130.701,17.229 130.305,17.735 130.113,18.328C129.844,19.234 129.726,20.178 129.764,21.123L129.764,28.44L125.9,28.44L125.9,8.265L129.774,8.265Z" style="fill:rgb(10,10,10);fill-rule:nonzero;"/>
            </g>
        </g>
    </g>
</svg>
