<svg xmlns:xlink="http://www.w3.org/1999/xlink" xmlns="http://www.w3.org/2000/svg" viewBox="0 0 172.62 34.06" width="173" height="34" class="css-1temqn0"><defs><style>.platformsh_logo_svg__a9669e03-1fb5-412c-8bb7-c77ece23d137{fill:#0a0a0a}</style></defs><g id="platformsh_logo_svg__aedaead0-bf20-45c7-a212-dce5d35b4ab7" data-name="Layer 2"><g id="platformsh_logo_svg__b96a14d9-7a02-40ae-94b5-88ede38115f4" data-name="Layer 1"><path class="platformsh_logo_svg__a9669e03-1fb5-412c-8bb7-c77ece23d137" d="M144.07 0h28.55v11.35h-28.55zM144.07 24.69h28.55v3.86h-28.55zM144.07 15.02h28.55v5.82h-28.55zM0 13.85h3.61V16a5.45 5.45 0 011.9-1.79 5.25 5.25 0 012.66-.69 5.59 5.59 0 014.33 2 8.06 8.06 0 011.78 5.56 8.38 8.38 0 01-1.79 5.71 5.6 5.6 0 01-4.34 2A4.94 4.94 0 016 28.34a7.46 7.46 0 01-2.08-1.66v7.38H0zm3.83 7.07a5.66 5.66 0 001 3.65 3 3 0 002.37 1.17 2.78 2.78 0 002.24-1.08 5.55 5.55 0 00.9-3.55 5.29 5.29 0 00-.93-3.42 2.84 2.84 0 00-2.28-1.11 3 3 0 00-2.36 1.09 4.88 4.88 0 00-.94 3.25zM16.07 28.49V8.28h3.87v20.21zM25.5 18.32l-3.5-.64a5.48 5.48 0 012-3.14 7.48 7.48 0 014.3-1 9.4 9.4 0 013.86.61A3.8 3.8 0 0134 15.69a7.89 7.89 0 01.52 3.47v4.52a15 15 0 00.19 2.84 8 8 0 00.69 2h-3.91c-.1-.26-.23-.64-.37-1.15-.07-.23-.11-.38-.14-.45a7 7 0 01-2.12 1.45 6.15 6.15 0 01-2.42.48 5 5 0 01-3.56-1.23 4.05 4.05 0 01-1.3-3.1 4.2 4.2 0 01.59-2.21 3.87 3.87 0 011.66-1.49 13.49 13.49 0 013.08-.9 21.67 21.67 0 003.77-.95v-.39a2 2 0 00-.56-1.58 3.26 3.26 0 00-2.12-.52 2.8 2.8 0 00-1.61.41 2.81 2.81 0 00-.89 1.43zm5.18 3.14c-.5.16-1.29.36-2.36.59a7.55 7.55 0 00-2.11.67 1.65 1.65 0 00-.75 1.37 1.93 1.93 0 00.6 1.41 2.13 2.13 0 001.54.59 3.34 3.34 0 002-.69 2.47 2.47 0 00.93-1.28 7.73 7.73 0 00.15-1.89zM43.81 13.85v3.09h-2.64v5.89a15.15 15.15 0 00.07 2.09.82.82 0 00.35.49 1 1 0 00.65.2 5 5 0 001.56-.38l.33 3a7.63 7.63 0 01-3.06.58 4.93 4.93 0 01-1.89-.35 2.79 2.79 0 01-1.18-.9 3.67 3.67 0 01-.55-1.51 19.41 19.41 0 01-.12-2.73v-6.38H35.5v-3.09h1.78v-2.91l3.89-2.26v5.17zM44.94 13.85h2.15v-1.1a7.41 7.41 0 01.39-2.75 3.18 3.18 0 011.45-1.48 5.56 5.56 0 012.67-.57 10.83 10.83 0 013.24.49l-.53 2.71a7.42 7.42 0 00-1.77-.23 1.6 1.6 0 00-1.21.4 2.28 2.28 0 00-.33 1.5v1h2.9v3H51v11.67h-3.91V16.9h-2.15zM54.58 21a8 8 0 011-3.73 6.59 6.59 0 012.7-2.76 8 8 0 013.89-1 7.29 7.29 0 015.44 2.16 7.43 7.43 0 012.13 5.45 7.52 7.52 0 01-2.14 5.5 7.24 7.24 0 01-5.4 2.19 8.47 8.47 0 01-3.84-.91 6.3 6.3 0 01-2.78-2.67 8.91 8.91 0 01-1-4.23zm4 .21a4.83 4.83 0 001 3.33 3.23 3.23 0 002.54 1.16 3.26 3.26 0 002.55-1.16 4.93 4.93 0 001-3.36 4.86 4.86 0 00-1-3.31 3.29 3.29 0 00-2.55-1.15 3.25 3.25 0 00-2.54 1.15 4.86 4.86 0 00-1.03 3.3zM75 28.49h-3.87V13.85h3.6v2.08A6.06 6.06 0 0176.39 14a3.07 3.07 0 011.67-.47 4.9 4.9 0 012.55.73l-1.2 3.38a3.32 3.32 0 00-1.82-.64 2.11 2.11 0 00-1.37.45 3 3 0 00-.89 1.62A22.62 22.62 0 0075 24zM81.77 13.85h3.57v2a5.75 5.75 0 014.56-2.33 4.87 4.87 0 012.44.58A4.39 4.39 0 0194 15.85a6.73 6.73 0 012.09-1.75 5 5 0 012.38-.58 5.36 5.36 0 012.73.65 4.06 4.06 0 011.67 1.93 8.44 8.44 0 01.4 3v9.36h-3.85v-8.34a6.16 6.16 0 00-.4-2.81 1.83 1.83 0 00-1.65-.83 2.66 2.66 0 00-1.53.5 2.71 2.71 0 00-1 1.45 10.52 10.52 0 00-.32 3v7h-3.91v-8a11.17 11.17 0 00-.2-2.76 1.76 1.76 0 00-.64-.92 2 2 0 00-1.18-.31A2.82 2.82 0 0087 17a2.7 2.7 0 00-1 1.4 10.2 10.2 0 00-.31 3v7.11h-3.92zM105.23 28.49v-3.88h3.87v3.88zM110.55 24.31l3.89-.59a2.84 2.84 0 001 1.72 3.4 3.4 0 002.12.58 3.86 3.86 0 002.27-.55 1.25 1.25 0 00.5-1 1.05 1.05 0 00-.27-.74 3.09 3.09 0 00-1.3-.5q-4.68-1-5.94-1.89a3.79 3.79 0 01-1.73-3.3 4.09 4.09 0 011.5-3.2 7 7 0 014.66-1.29 8 8 0 014.46 1 5 5 0 012 2.89l-3.66.68a2.21 2.21 0 00-.89-1.31 3.18 3.18 0 00-1.86-.45 4.33 4.33 0 00-2.2.42.93.93 0 00-.44.79.85.85 0 00.39.7 14.37 14.37 0 003.62 1.09A10.82 10.82 0 01123 21a3.58 3.58 0 011.21 2.88 4.4 4.4 0 01-1.68 3.46 7.42 7.42 0 01-5 1.45 8.07 8.07 0 01-4.73-1.22 5.56 5.56 0 01-2.25-3.26zM129.66 8.28v7.43a5.79 5.79 0 016.89-1.71 3.92 3.92 0 011.62 1.26 4.66 4.66 0 01.74 1.71 15.64 15.64 0 01.2 2.91v8.59h-3.87v-7.72a11.35 11.35 0 00-.22-2.92 1.93 1.93 0 00-.78-1 2.53 2.53 0 00-1.4-.37 3.22 3.22 0 00-1.72.47 2.64 2.64 0 00-1.12 1.43 8.63 8.63 0 00-.35 2.8v7.33h-3.87V8.28z" fill="#0A0A0A"></path></g></g></svg>