<svg xmlns:xlink="http://www.w3.org/1999/xlink" height="34" viewBox="0 0 150 33.7" width="150" xmlns="http://www.w3.org/2000/svg"><title>Quicken</title><path d="M12.4,22.6c-4.4,0-3.2-5.1-2.6-8.2c0.6-3,1.4-8.1,5.7-8.1c2.1,0,2.9,1.3,3,3.1 c0.1,1.7-0.2,4-0.6,5.7C17.3,18.1,16.4,22.6,12.4,22.6 M0.3,14.6C-1.1,22.2,2.1,29,10.3,29c1.2,0,2.4-0.1,3.7-0.5 c0.2,3.8,2.2,5.1,6,5.1l3.4-0.2l1.2-6.4c-0.8,0.2-1.5,0.3-2.3,0.3c-1,0-2.5-0.2-2.4-1.4c4.1-2.4,6.5-7.1,7.4-11.3 C28.8,6.4,25.4,0,16.7,0C12.6,0,9.1,1.1,5.8,4.3C2.8,7.2,1.1,10.9,0.3,14.6"></path><path d="M39,28.5l0.7-3.4h-0.1c-1.4,2.7-4.4,3.8-7.1,3.8c-1.7,0-3.3-0.4-4.4-1.6c-1.2-1.5-1-3.3-0.6-5.3 l2.8-14.5h8.1l-2.5,12.7c-0.3,1.4-0.6,2.8,1.3,2.8c0.8,0,1.7-0.5,2.2-1.2c0.5-0.7,0.7-1.4,0.8-2.2l2.3-12h8.1l-4.1,20.9H39"></path><path d="M57.1,28.5h-8.1L53,7.6h8.1L57.1,28.5z M61.5,5.6h-8.1L54.5,0h8.1L61.5,5.6L61.5,5.6z"></path><path d="M81,20.7c-1.8,5.4-6.2,8.3-11.5,8.3c-3,0-5.3-0.7-7.1-2.9c-1.7-2.1-2.1-5-1.6-8 C62,11.8,67.2,7.2,73.6,7.2c5.2,0,8.7,3,8.3,8.3l-7.3,0.6l0-0.2c0-1.4,0-3.1-1.8-3.1c-2.6,0-3.2,3.4-3.6,5.2c-0.4,2-1,5.2,1.7,5.2 c1.8,0,2.7-1.6,3.2-3.1L81,20.7"></path><polyline points="99.3,14.8 103.7,28.5 95.2,28.5 92.9,20.2 90.3,22.8 89.2,28.5 81.1,28.5 86.6,0.4 94.7,0.4 91.7,15.6 93.9,13.3 99.9,7.6 107,7.6 99.3,14.8"></polyline><path d="M113.1,15.6c0.3-1.9,1.5-3.6,3.6-3.6c2.3,0,2.7,1.5,2.3,3.6H113.1z M118.4,21 c-0.7,1.8-1.8,2.5-3.7,2.5c-2.5,0-3-1.6-2.4-3.9h14l0.2-1.1c1.3-6.9-2.1-11.4-9-11.4c-3,0-6.4,1-8.9,3.2c-2.4,2-4.1,5.1-4.6,7.9 c-0.6,3,0.1,5.9,1.9,7.9c2,2.1,4.8,2.8,7.9,2.8c5,0,9.9-2.3,12.2-7.4L118.4,21L118.4,21z"></path><path d="M138.3,7.6l-0.6,2.9h0.1c1.5-2.4,4.1-3.3,6.6-3.3c2,0,4.1,0.6,5,2.2c1,1.7,0.5,4.1,0.1,6.3 L147,28.5h-8.1l2.5-12.7c0.2-1.3,0.6-3-1.2-3c-2.3,0-2.8,1.9-3.2,3.6l-2.3,12.1h-8.1l4.1-20.9H138.3"></path></svg>