<?xml version="1.0" encoding="UTF-8" standalone="no"?>
<!DOCTYPE svg PUBLIC "-//W3C//DTD SVG 1.1//EN" "http://www.w3.org/Graphics/SVG/1.1/DTD/svg11.dtd">
<svg width="100%" height="100%" viewBox="0 0 150 20" version="1.1" xmlns="http://www.w3.org/2000/svg" xmlns:xlink="http://www.w3.org/1999/xlink" xml:space="preserve" xmlns:serif="http://www.serif.com/" style="fill-rule:evenodd;clip-rule:evenodd;stroke-linejoin:round;stroke-miterlimit:2;">
    <g transform="matrix(3.87477,0,0,3.87477,0,-0.21195)">
        <path d="M2.287,1.245C2.105,0.93 1.887,0.749 1.5,0.749C1.095,0.749 0.744,1.039 0.744,1.457C0.744,1.85 1.149,2.031 1.458,2.171L1.76,2.304C2.353,2.564 2.855,2.86 2.855,3.586C2.855,4.385 2.214,4.995 1.421,4.995C0.69,4.996 0.145,4.523 0,3.816L0.496,3.677C0.562,4.142 0.919,4.524 1.409,4.524C1.899,4.524 2.347,4.149 2.347,3.635C2.347,3.102 1.93,2.921 1.506,2.727L1.228,2.606C0.695,2.364 0.236,2.092 0.236,1.439C0.236,0.731 0.835,0.277 1.512,0.277C2.02,0.277 2.449,0.537 2.691,0.985L2.287,1.245Z" style="fill:#222;fill-rule:nonzero;"/>
    </g>
    <g transform="matrix(3.87477,0,0,3.87477,0,-0.21195)">
        <path d="M5.063,3.072C5.063,3.411 5.051,3.798 5.262,4.088C5.462,4.366 5.849,4.523 6.181,4.523C6.508,4.523 6.865,4.372 7.076,4.118C7.318,3.828 7.3,3.429 7.3,3.072L7.3,0.356L7.808,0.356L7.808,3.211C7.808,3.707 7.772,4.1 7.409,4.476C7.094,4.815 6.641,4.996 6.181,4.996C5.752,4.996 5.31,4.833 5.002,4.53C4.603,4.149 4.555,3.731 4.555,3.211L4.555,0.356L5.063,0.356L5.063,3.072Z" style="fill:#222;fill-rule:nonzero;"/>
    </g>
    <g transform="matrix(3.87477,0,0,3.87477,0,-0.21195)">
        <path d="M9.587,0.162L13.144,3.888L13.144,0.356L13.652,0.356L13.652,5.123L10.095,1.403L10.095,4.917L9.587,4.917L9.587,0.162Z" style="fill:#222;fill-rule:nonzero;"/>
    </g>
    <g transform="matrix(3.87477,0,0,3.87477,0,-0.21195)">
        <path d="M16.078,0.827L16.266,0.827C16.859,0.827 17.458,0.881 17.458,1.626C17.458,2.279 16.98,2.449 16.418,2.449L16.079,2.449L16.079,0.827L16.078,0.827ZM16.078,2.921L16.447,2.921C16.828,2.921 17.222,2.873 17.53,2.619C17.814,2.383 17.965,2.008 17.965,1.639C17.965,1.234 17.79,0.835 17.451,0.599C17.118,0.369 16.713,0.357 16.32,0.357L15.57,0.357L15.57,4.918L16.078,4.918L16.078,2.921Z" style="fill:#222;fill-rule:nonzero;"/>
    </g>
    <g transform="matrix(3.87477,0,0,3.87477,0,-0.21195)">
        <path d="M23.714,2.643C23.714,3.973 22.66,4.983 21.322,4.983C20.013,4.983 18.959,3.925 18.959,2.653C18.959,1.361 20.003,0.303 21.322,0.303C22.66,0.303 23.714,1.313 23.714,2.643ZM19.494,2.653C19.494,3.623 20.271,4.482 21.292,4.482C22.35,4.482 23.174,3.688 23.174,2.653C23.174,1.6 22.359,0.806 21.292,0.806C20.262,0.806 19.494,1.665 19.494,2.653Z" style="fill:#222;fill-rule:nonzero;"/>
    </g>
    <g transform="matrix(3.87477,0,0,3.87477,0,-0.21195)">
        <path d="M26.161,3.773L27.637,0.119L29.112,3.773L30.31,0.355L30.86,0.355L29.112,5.152L27.637,1.48L26.161,5.152L24.413,0.355L24.963,0.355L26.161,3.773Z" style="fill:#222;fill-rule:nonzero;"/>
    </g>
    <g transform="matrix(3.87477,0,0,3.87477,0,-0.21195)">
        <path d="M31.998,0.356L34.363,0.356L34.363,0.828L32.506,0.828L32.506,2.183L34.309,2.183L34.309,2.655L32.506,2.655L32.506,4.445L34.363,4.445L34.363,4.917L31.998,4.917L31.998,0.356Z" style="fill:#222;fill-rule:nonzero;"/>
    </g>
    <g transform="matrix(3.87477,0,0,3.87477,0,-0.21195)">
        <path d="M36.583,0.827L36.734,0.827C37.345,0.827 37.895,0.9 37.895,1.65C37.895,2.358 37.314,2.467 36.74,2.467L36.583,2.467L36.583,0.827ZM36.583,2.915L36.71,2.915L38.089,4.917L38.712,4.917L37.26,2.872C37.962,2.812 38.404,2.316 38.404,1.614C38.404,0.586 37.6,0.356 36.735,0.356L36.076,0.356L36.076,4.917L36.584,4.917L36.584,2.915L36.583,2.915Z" style="fill:#222;fill-rule:nonzero;"/>
    </g>
</svg>
