<svg xmlns:xlink="http://www.w3.org/1999/xlink" height="48" viewBox="0 0 150 47.3" width="150" xmlns="http://www.w3.org/2000/svg"><title>USAID</title><path fill="#222" d="M32.1,0.4v18.2c0,10.6-7.3,14.3-16.1,14.3C6.7,33,0,28.6,0,18.7V0.4h8v18.5c0,4.6,3.3,7.4,8,7.4c4.2,0,8.1-2.2,8.1-8V0.4 H32.1z M60.2,8.8C55.5,6.7,52.7,5.9,50,5.9c-2.9,0-4.7,1-4.7,2.6c0,4.9,16.3,3.5,16.3,14.7c0,6.2-5.2,9.8-12.3,9.8 c-5.6,0-8.4-1.5-11.6-3.1v-6.9c4.6,3.1,7.4,4.1,11,4.1c3.1,0,4.7-1.1,4.7-3c0-5.3-16.3-3.3-16.3-14.9C37,3.7,41.8,0,49.3,0 c3.6,0,6.8,0.8,10.9,2.5V8.8z M99.6,32.6H91l-2.6-6.4H74l-2.4,6.4h-8.5l13-32.1h9.3L99.6,32.6z M80.8,8.1l-4.7,12.5H86L80.8,8.1z M111.2,32.6h-8V0.4h8V32.6z M132.2,0.4C144,0.4,150,7.7,150,16.5c0,9.2-5.8,16-18.7,16h-13.3V0.4H132.2z M126.1,26.7h5.2 c8.1,0,10.5-5.5,10.5-10.2c0-5.5-3-10.2-10.6-10.2h-5.1V26.7z M4.1,40.5h-3v2.1h3v1h-3v3.6H0v-7.7h4.1V40.5z M7.2,39.5 c1.6,0,2.5,0.8,2.5,2.2c0,0.9-0.5,1.6-1.3,1.9c0.7,0.5,1.1,1.2,1.7,2.1c0.3,0.5,0.5,0.8,1,1.5H9.9l-1-1.6c-1-1.6-1.5-1.8-2-1.8H6.4 v3.3H5.3v-7.7H7.2z M6.4,42.8h0.7c1.2,0,1.5-0.6,1.5-1.2c0-0.7-0.4-1.2-1.5-1.2H6.4V42.8z M15.1,39.4c2.5,0,4.1,1.8,4.1,3.9 c0,2.1-1.6,3.9-4.2,3.9c-2.5,0-4.1-1.9-4.1-3.9C10.9,41.2,12.6,39.4,15.1,39.4z M15.1,46.3c1.7,0,3-1.2,3-2.9c0-1.7-1.3-2.9-3-2.9 c-1.7,0-3,1.2-3,2.9C12.1,45,13.4,46.3,15.1,46.3z M27.5,47.2h-1.1v-6h0l-2.4,3h-0.2l-2.4-3h0v6h-1.1v-7.7h1l2.5,3.2l2.6-3.2h1V47.2 z M37.7,40.5H35v6.7h-1.1v-6.7h-2.7v-1h6.4V40.5z M45.1,47.2H44v-3.3h-4.3v3.3h-1.1v-7.7h1.1v3.3H44v-3.3h1.1V47.2z M51.1,40.5h-3.3 v2.3H51v1h-3.1v2.4h3.4v1h-4.5v-7.7h4.4V40.5z M62,47.2h-1.1l-1-2.3h-3.3l-1,2.3h-1.1l3.3-7.7h0.8L62,47.2z M57,43.9h2.4l-1.2-2.8 L57,43.9z M69.9,47.2h-1.1v-6h0l-2.4,3h-0.2l-2.4-3h0v6h-1.1v-7.7h1l2.5,3.2l2.6-3.2h1V47.2z M75.9,40.5h-3.3v2.3h3.1v1h-3.1v2.4H76 v1h-4.5v-7.7h4.4V40.5z M79.1,39.5c1.6,0,2.5,0.8,2.5,2.2c0,0.9-0.5,1.6-1.3,1.9c0.7,0.5,1.1,1.2,1.7,2.1c0.3,0.5,0.5,0.8,1,1.5 h-1.3l-1-1.6c-1-1.6-1.5-1.8-2-1.8h-0.5v3.3h-1.1v-7.7H79.1z M78.3,42.8H79c1.2,0,1.5-0.6,1.5-1.2c0-0.7-0.4-1.2-1.5-1.2h-0.7V42.8z M84.7,47.2h-1.1v-7.7h1.1V47.2z M92.7,41.2c-0.9-0.6-1.8-0.8-2.6-0.8c-1.8,0-3.1,1.2-3.1,2.9c0,1.7,1.3,2.9,3.1,2.9 c0.9,0,1.8-0.3,2.7-0.9v1.2C92,47,91.2,47.3,90,47.3c-2.9,0-4.1-2.2-4.1-3.8c0-2.3,1.8-4.1,4.2-4.1c0.8,0,1.6,0.2,2.6,0.6V41.2z M100.7,47.2h-1.1l-1-2.3h-3.3l-1,2.3h-1.1l3.3-7.7h0.8L100.7,47.2z M95.7,43.9h2.4l-1.2-2.8L95.7,43.9z M108.5,47.2h-0.9l-5.1-5.9 v5.9h-1v-7.7h0.9l5.2,5.9v-5.9h1V47.2z M115.9,39.5c1.7,0,2.4,1,2.4,2.2c0,1.2-0.8,2.1-2.6,2.1h-1.1v3.3h-1.1v-7.7H115.9z M114.6,42.9h1.2c0.8,0,1.4-0.4,1.4-1.2c0-0.6-0.3-1.2-1.3-1.2h-1.3V42.9z M123.7,40.5h-3.3v2.3h3.1v1h-3.1v2.4h3.4v1h-4.5v-7.7h4.4 V40.5z M128.7,39.4c2.5,0,4.1,1.8,4.1,3.9c0,2.1-1.6,3.9-4.2,3.9c-2.5,0-4.1-1.9-4.1-3.9C124.6,41.2,126.3,39.4,128.7,39.4z M128.7,46.3c1.7,0,3-1.2,3-2.9c0-1.7-1.3-2.9-3-2.9c-1.7,0-3,1.2-3,2.9C125.8,45,127,46.3,128.7,46.3z M136.3,39.5 c1.7,0,2.4,1,2.4,2.2c0,1.2-0.8,2.1-2.6,2.1H135v3.3h-1.1v-7.7H136.3z M135,42.9h1.2c0.8,0,1.4-0.4,1.4-1.2c0-0.6-0.3-1.2-1.3-1.2 H135V42.9z M140.8,46.2h3.5v1h-4.6v-7.7h1.1V46.2z M149.5,40.5h-3.3v2.3h3.1v1h-3.1v2.4h3.4v1h-4.5v-7.7h4.4V40.5z"></path></svg>